<?xml version="1.0" standalone="no"?>
<!DOCTYPE svg PUBLIC "-//W3C//DTD SVG 1.1//EN" "http://www.w3.org/Graphics/SVG/1.1/DTD/svg11.dtd" >
<svg xmlns="http://www.w3.org/2000/svg" xmlns:xlink="http://www.w3.org/1999/xlink" version="1.1">
<metadata></metadata>
<defs>
<font id="museo_sans300_italic" horiz-adv-x="1255" >
<font-face units-per-em="2048" ascent="1638" descent="-410" />
<missing-glyph horiz-adv-x="555" />
<glyph unicode="&#xfb01;" horiz-adv-x="1137" d="M102 0l179 911h-129l22 119h129l8 43q16 84 45.5 144.5t67 102.5t79.5 67.5t83 39.5t78 18.5t63 4.5q17 0 31 -0.5t24 -1.5q11 -1 21 -2l-27 -125q-6 1 -13 2q-6 1 -14.5 1.5t-19.5 0.5q-30 0 -71 -8t-82 -35t-75.5 -78t-51.5 -137l-9 -37h611l-201 -1030h-139l176 911 h-467l-178 -911h-140zM950 1266l37 174h150l-35 -174h-152z" />
<glyph unicode="&#xfb02;" horiz-adv-x="1167" d="M102 0l177 903h-129l22 119h129l10 53q16 83 45.5 143.5t67 102t79.5 67t83 39.5t78 18.5t63 4.5q17 0 31 -0.5t24 -1.5q11 -1 21 -2l-27 -125q-6 1 -13 2q-6 1 -14.5 1.5t-19.5 0.5q-30 0 -71 -8t-82 -35t-75.5 -78t-51.5 -137l-11 -45h264l-22 -119h-262l-176 -903 h-140zM742 182q0 16 1.5 34t6.5 40l231 1184h140l-228 -1166q-3 -17 -4.5 -34t-1.5 -29q0 -32 9 -50.5t23.5 -27.5t31.5 -11.5t33 -2.5h12.5t9.5 1q4 0 8 1l-26 -125q-7 -1 -15 -2q-7 -1 -15 -1.5t-17 -0.5q-30 0 -65 7.5t-64.5 28t-49.5 57.5t-20 97z" />
<glyph unicode="&#xfb03;" horiz-adv-x="1798" d="M102 0l179 911h-129l22 119h129l8 43q16 84 45.5 144.5t67 102.5t79.5 67.5t83 39.5t78 18.5t63 4.5q17 0 31 -0.5t24 -1.5q11 -1 21 -2l-27 -125q-6 1 -13 2q-6 1 -14.5 1.5t-19.5 0.5q-30 0 -71 -8t-82 -35t-75.5 -78t-51.5 -137l-9 -37h525l8 43q16 84 45.5 144.5 t66.5 102.5t79.5 67.5t83.5 39.5t77.5 18.5t63.5 4.5q17 0 30.5 -0.5t23.5 -1.5q11 -1 21 -2l-26 -125q-6 1 -13 2q-6 1 -14.5 1.5t-19.5 0.5q-30 0 -71.5 -8t-82.5 -35t-75.5 -78t-51.5 -137l-8 -37h610l-201 -1030h-139l176 911h-467l-178 -911h-139l178 911h-522 l-178 -911h-140zM1612 1266l37 174h149l-35 -174h-151z" />
<glyph unicode="&#xfb04;" horiz-adv-x="1829" d="M102 0l179 911h-129l22 119h129l8 43q16 84 45.5 144.5t67 102.5t79.5 67.5t83 39.5t78 18.5t63 4.5q17 0 31 -0.5t24 -1.5q11 -1 21 -2l-27 -125q-6 1 -13 2q-6 1 -14.5 1.5t-19.5 0.5q-30 0 -71 -8t-82 -35t-75.5 -78t-51.5 -137l-9 -37h523l8 43q16 84 45.5 144.5 t66.5 102.5t79 67.5t83 39.5t77.5 18.5t63.5 4.5q17 0 31 -0.5t24 -1.5q11 -1 21 -2l-26 -125q-6 1 -13 2q-6 1 -14.5 1.5t-19.5 0.5q-30 0 -71.5 -8t-82.5 -35t-75.5 -78t-51.5 -137l-8 -37h264l-23 -119h-262l-178 -911h-139l178 911h-520l-178 -911h-140zM1403 182 q0 16 1.5 34t6.5 40l231 1184h140l-228 -1166q-3 -17 -4.5 -34t-1.5 -29q0 -32 9 -50.5t23.5 -27.5t31.5 -11.5t33 -2.5h12.5t9.5 1q4 0 8 1l-26 -125q-7 -1 -15 -2q-7 -1 -15 -1.5t-17 -0.5q-30 0 -65 7.5t-64.5 28t-49.5 57.5t-20 97z" />
<glyph horiz-adv-x="0" />
<glyph unicode="&#xd;" horiz-adv-x="555" />
<glyph unicode=" "  horiz-adv-x="555" />
<glyph unicode="&#x09;" horiz-adv-x="555" />
<glyph unicode="&#xa0;" horiz-adv-x="555" />
<glyph unicode="!" horiz-adv-x="633" d="M117 0l33 162h161l-32 -162h-162zM205 377l201 1063h145l-215 -1063h-131z" />
<glyph unicode="&#x22;" horiz-adv-x="647" d="M236 1114l67 346h119l-66 -346h-120zM485 1114l66 346h121l-68 -346h-119z" />
<glyph unicode="#" horiz-adv-x="1481" d="M53 399l43 115h287l149 401h-286l41 115h286l152 410h129l-152 -410h355l151 410h127l-151 -410h284l-41 -115h-284l-150 -401h283l-41 -115h-285l-147 -399h-129l149 399h-354l-147 -399h-129l149 399h-289zM512 514h352l150 401h-355z" />
<glyph unicode="$" horiz-adv-x="1143" d="M41 160l96 100q37 -42 89 -75q45 -28 110 -51t153 -23q64 0 125.5 20.5t109.5 59t77.5 93t29.5 122.5q0 55 -25.5 96t-67.5 73.5t-95.5 60t-109 56t-109 60t-95.5 72t-67.5 93t-25.5 123.5q0 79 34.5 152.5t96 131t144.5 94.5t181 44l39 191h115l-37 -193 q80 -8 138.5 -30.5t96.5 -45.5q45 -27 76 -59l-84 -108q-33 31 -78 56q-38 21 -93.5 38.5t-127.5 17.5q-78 0 -143 -25.5t-112.5 -66.5t-74 -93t-26.5 -104q0 -50 25.5 -87t67.5 -67.5t95.5 -57.5t109.5 -55.5t109.5 -61.5t95.5 -76t67.5 -99t25.5 -130q0 -83 -34.5 -158.5 t-95.5 -134t-145 -95.5t-184 -43l-35 -186h-114l34 193q-94 10 -161.5 39t-112.5 60q-53 36 -88 79z" />
<glyph unicode="%" horiz-adv-x="1505" d="M18 0l1360 1440h160l-1364 -1440h-156zM221 1147q0 60 28 117t74.5 101.5t106.5 71.5t125 27q57 0 103.5 -18.5t79.5 -51.5t51 -79t18 -101q0 -63 -28 -120.5t-74.5 -101.5t-106 -70.5t-123.5 -26.5q-59 0 -106 18t-80 51t-50.5 79.5t-17.5 103.5zM344 1145 q0 -29 10 -53.5t28 -42.5t43.5 -28.5t57.5 -10.5q39 0 75.5 16.5t64.5 44.5t44.5 65t16.5 78q0 28 -10 53t-28 43.5t-43 29t-56 10.5q-39 0 -76 -17t-65 -45t-45 -65.5t-17 -77.5zM741 227q0 60 28 117t74.5 102t106.5 72t125 27q58 0 104.5 -18.5t79.5 -52t50.5 -79.5 t17.5 -100q0 -63 -28 -121t-74.5 -102t-106 -70.5t-123.5 -26.5q-57 0 -104 18t-80.5 51t-51.5 79.5t-18 103.5zM864 225q0 -29 10 -54t28.5 -43t44 -28t57.5 -10q39 0 75 16t64 44t44.5 64.5t16.5 78.5q0 29 -10 54t-28 43.5t-43 29t-56 10.5q-38 0 -74.5 -16.5t-65 -45 t-46 -65.5t-17.5 -78z" />
<glyph unicode="&#x26;" horiz-adv-x="1378" d="M76 342q0 70 25 139.5t70.5 128t109 102.5t141.5 64v4q-41 18 -74 51q-28 29 -51 77.5t-23 125.5q0 95 38 174t104 136t155.5 88.5t192.5 31.5q34 0 65.5 -4t56.5 -9q29 -6 54 -13l-57 -113q-20 3 -40 7q-17 2 -38.5 4.5t-40.5 2.5q-68 0 -130 -21.5t-109.5 -61 t-76 -96.5t-28.5 -128q0 -35 10 -71t38.5 -65t81 -47t136.5 -18h303l41 203h139l-39 -203h195l-25 -126h-194l-43 -211q-28 -136 -78 -234t-120.5 -161.5t-160 -93.5t-194.5 -30q-104 0 -184.5 27t-136 75.5t-84.5 116t-29 148.5zM223 346q0 -51 19 -94t55.5 -75t90.5 -50 t124 -18q77 0 143 22t119 69t91 120.5t59 177.5l41 207h-303q-86 0 -165 -22.5t-140 -67t-97.5 -112t-36.5 -157.5z" />
<glyph unicode="'" horiz-adv-x="401" d="M236 1114l67 346h121l-66 -346h-122z" />
<glyph unicode="(" horiz-adv-x="588" d="M143 350q0 324 105.5 608.5t312.5 536.5h135q-206 -260 -315 -546.5t-109 -602.5q0 -140 23.5 -275.5t73.5 -265.5h-125q-47 119 -74 256.5t-27 288.5z" />
<glyph unicode=")" horiz-adv-x="590" d="M-94 -195q205 260 314.5 546t109.5 603q0 141 -23.5 276t-73.5 265h125q47 -119 74 -256t27 -289q0 -324 -105.5 -608.5t-312.5 -536.5h-135z" />
<glyph unicode="*" horiz-adv-x="956" d="M178 1108l64 125l274 -109l49 316h140l-76 -316l319 107l19 -129l-324 -90v-4l141 -242l-114 -78l-127 260h-4l-226 -258l-100 80l242 250v4z" />
<glyph unicode="+" horiz-adv-x="1391" d="M143 522l23 119h471l104 522h125l-102 -522h471l-23 -119h-471l-102 -522h-125l102 522h-473z" />
<glyph unicode="," horiz-adv-x="508" d="M-78 -199l191 367h157l-223 -367h-125z" />
<glyph unicode="-" horiz-adv-x="999" d="M190 518l23 127h582l-25 -127h-580z" />
<glyph unicode="." horiz-adv-x="498" d="M51 0l33 170h166l-33 -170h-166z" />
<glyph unicode="/" horiz-adv-x="805" d="M-53 -86l831 1606h140l-832 -1606h-139z" />
<glyph unicode="0" horiz-adv-x="1290" d="M137 440q0 69 8 150t25 166t44.5 170.5t65.5 164t88 147t113 118.5t139.5 79t167.5 29q113 0 190.5 -34t125.5 -95.5t69 -147.5t21 -190q0 -92 -14 -203.5t-45.5 -225t-82 -220.5t-122.5 -190t-168 -133t-219 -50q-111 0 -188 34t-125.5 95.5t-70.5 147t-22 188.5z M285 440q0 -74 14 -135t45 -104.5t81 -67.5t122 -24q94 0 167.5 44t129 116.5t94 165.5t63 191.5t35.5 194.5t11 174q0 75 -13.5 137t-44.5 106.5t-81.5 68.5t-123.5 24q-89 0 -160 -41.5t-126.5 -111t-95.5 -160.5t-66 -190t-38.5 -199.5t-12.5 -188.5z" />
<glyph unicode="1" horiz-adv-x="954" d="M4 0l23 127h323l203 1042q4 15 7.5 29.5t5.5 25.5l5 25h-4q-7 -9 -19 -21q-11 -11 -28 -27t-43 -38l-178 -147l-78 100l393 324h134l-259 -1313h318l-25 -127h-778z" />
<glyph unicode="2" horiz-adv-x="1161" d="M18 0q3 113 45 202.5t108.5 162.5t150.5 132.5t171.5 114t171 107t148.5 111t105 125.5t40 151q0 50 -17 91t-49 70.5t-78.5 45.5t-106.5 16q-40 0 -77 -8.5t-70 -22t-61.5 -31t-52.5 -35.5q-56 -43 -102 -97l-100 79q58 70 131 125q31 23 69 45.5t81.5 40t92.5 28.5 t103 11q93 0 165.5 -25.5t122 -71.5t75.5 -110t26 -141q0 -96 -36 -173.5t-95.5 -142.5t-136 -120t-158.5 -105.5t-162.5 -99.5t-147.5 -102t-114.5 -113t-62.5 -133h745l-24 -127h-900z" />
<glyph unicode="3" horiz-adv-x="1159" d="M8 172l96 98q35 -45 86 -80q44 -30 110 -54.5t157 -24.5q72 0 142 28t124.5 78t88.5 118t34 148q0 62 -24.5 108.5t-66.5 77t-98 45.5t-120 15h-107l-18 84l440 422q17 17 33 31.5t29 25.5q15 12 28 23v4q-12 -2 -30 -3q-30 -3 -87 -3h-530l24 127h842l-18 -94l-525 -498 q36 -2 78 -10.5t83.5 -26t80 -45t68 -67t47.5 -92.5t18 -122q0 -101 -43 -193.5t-116 -163t-170.5 -112t-206.5 -41.5q-59 0 -109 8.5t-93 22t-78 31.5t-62 36q-64 43 -107 99z" />
<glyph unicode="4" horiz-adv-x="1227" d="M33 399l18 93l879 948h166l-178 -916h204l-24 -125h-205l-78 -399h-141l78 399h-719zM240 524h536l117 602q5 23 10.5 47t10.5 44q6 23 12 45h-4q-1 0 -8.5 -10t-20 -26t-28.5 -35.5t-34 -37.5z" />
<glyph unicode="5" horiz-adv-x="1157" d="M31 180l102 92q28 -46 71 -81q37 -30 95.5 -55t142.5 -25q79 0 155.5 31t136.5 85t97 128t37 161q0 60 -22.5 109.5t-63.5 85.5t-98 55.5t-125 19.5q-59 0 -109.5 -12.5t-87.5 -26.5q-44 -17 -79 -38l-88 32l213 699h700l-25 -127h-571l-115 -365q-6 -20 -11 -34.5 t-9 -25.5q-4 -12 -8 -22h4q28 15 62 26q29 10 68.5 18t86.5 8q96 0 174.5 -30t134.5 -83t86.5 -126t30.5 -159q0 -76 -22 -146t-60.5 -130.5t-92.5 -110t-117.5 -85t-135 -54.5t-146.5 -19q-58 0 -106.5 9t-88 23t-71 32.5t-55.5 37.5q-56 45 -90 103z" />
<glyph unicode="6" horiz-adv-x="1229" d="M127 494q0 65 12.5 141t37.5 156.5t62.5 161.5t87 155.5t111 139.5t135 113t158.5 75.5t182 27.5q66 0 117 -9.5t87 -20.5q41 -13 73 -29l-72 -119q-25 12 -57 22q-27 8 -64 15.5t-82 7.5q-76 0 -144 -23.5t-127 -64t-109.5 -96t-91 -119.5t-71 -134t-50.5 -140h4 q33 39 76.5 70t92.5 53t102 33.5t105 11.5q90 0 162 -27t122 -76.5t77 -119.5t27 -156q0 -68 -16.5 -136.5t-48 -132t-77.5 -118t-104.5 -95t-129 -63.5t-151.5 -23q-103 0 -184 37.5t-137 105.5t-85.5 164t-29.5 212zM274 467q0 -65 18.5 -129t54.5 -115t89.5 -82.5 t124.5 -31.5q81 0 151 33.5t122 92t82 137t30 167.5q0 59 -18.5 106.5t-53 80.5t-85.5 51t-115 18q-41 0 -86.5 -10.5t-90 -30.5t-85 -49t-71.5 -65.5t-49 -80t-18 -92.5z" />
<glyph unicode="7" horiz-adv-x="1071" d="M66 0l813 1180q20 29 39 53t33 42q17 21 32 38v4q-12 -1 -28 -2q-14 -1 -34 -1.5t-47 -0.5h-661l25 127h936l-19 -99l-930 -1341h-159z" />
<glyph unicode="8" horiz-adv-x="1247" d="M90 356q0 68 22 127t55.5 108t73.5 88.5t76.5 67.5t64 44.5t36.5 21.5q-60 45 -97.5 103.5t-37.5 140.5q0 75 34 148t97 130.5t153.5 93t204.5 35.5q95 0 169 -22.5t124.5 -64t77 -101t26.5 -133.5q0 -55 -17 -107.5t-43 -100t-57.5 -88.5t-61 -72.5t-52.5 -53t-33 -29.5 q34 -22 64 -48.5t51.5 -58.5t34 -70t12.5 -83q0 -96 -43.5 -179.5t-118 -145t-173 -97t-208.5 -35.5q-93 0 -172.5 25.5t-137.5 74.5t-91 120t-33 161zM240 360q0 -60 23 -107t62 -79.5t91 -50t110 -17.5q72 0 142 22.5t125.5 64.5t90 102t34.5 135q0 59 -36 102.5t-93 79 t-126.5 67t-136.5 66.5q-17 -9 -44.5 -26.5t-59.5 -42.5t-64.5 -58t-58.5 -72.5t-42.5 -86t-16.5 -99.5zM430 1057q0 -59 32.5 -101.5t84.5 -76.5t117.5 -63.5t130.5 -61.5q12 10 33.5 29t47 45.5t52 60t48 72.5t35 83t13.5 91q0 46 -18 82.5t-51.5 62t-81 39.5t-105.5 14 q-75 0 -137 -22.5t-106.5 -60.5t-69.5 -88t-25 -105z" />
<glyph unicode="9" horiz-adv-x="1229" d="M82 35l72 119q26 -13 58 -23q27 -8 64 -15t82 -7q75 0 142.5 23.5t127 64t109.5 96t91 119.5t71.5 134t50.5 140h-4q-30 -36 -71.5 -67t-90.5 -53.5t-103.5 -35t-109.5 -12.5q-90 0 -162.5 27t-122.5 76.5t-77 119.5t-27 156q0 68 16.5 136.5t48.5 131.5t78 117.5t105 95 t129.5 63.5t151.5 23q103 0 183.5 -37.5t136 -105.5t85 -163.5t29.5 -211.5q0 -65 -12.5 -141t-38 -156.5t-62.5 -161.5t-87 -156t-111.5 -140t-135 -113t-158.5 -75.5t-182 -27.5q-66 0 -117 9.5t-86 20.5q-41 13 -73 30zM326 901q0 -59 18 -106.5t52.5 -80.5t84.5 -51 t113 -18q41 0 87 10.5t91 30.5t86 49t72.5 65.5t50 80t18.5 92.5q0 65 -18.5 129t-54.5 115t-89.5 82.5t-123.5 31.5q-81 0 -151.5 -33.5t-123 -92t-82.5 -137t-30 -167.5z" />
<glyph unicode=":" horiz-adv-x="600" d="M98 0l33 170h166l-33 -170h-166zM266 860l33 170h166l-33 -170h-166z" />
<glyph unicode=";" horiz-adv-x="608" d="M-41 -199l188 367h160l-223 -367h-125zM279 860l32 170h166l-33 -170h-165z" />
<glyph unicode="&#x3c;" horiz-adv-x="1206" d="M94 530v103l926 414v-138l-752 -325v-4l752 -326v-137z" />
<glyph unicode="=" horiz-adv-x="1407" d="M215 344v119h954v-119h-954zM215 700v119h954v-119h-954z" />
<glyph unicode="&#x3e;" horiz-adv-x="1182" d="M150 117v137l751 326v4l-751 325v138l925 -414v-103z" />
<glyph unicode="?" horiz-adv-x="977" d="M180 0l33 162h160l-33 -162h-160zM213 1358q44 30 99 54q46 20 108 37t133 17q81 0 147 -22.5t113 -63.5t72.5 -98t25.5 -127q0 -91 -32.5 -158.5t-83 -122t-110.5 -100t-115 -91.5t-96.5 -98.5t-55.5 -119.5l-19 -88h-137l19 92q17 85 59 148.5t95.5 114.5t111 95 t105.5 90t79 99.5t31 124.5q0 41 -15.5 76.5t-44 61t-70 40t-93.5 14.5q-55 0 -103.5 -13.5t-84.5 -30.5q-43 -19 -79 -44z" />
<glyph unicode="@" horiz-adv-x="1624" d="M96 358q0 119 34 231t93.5 211t142 181t179.5 141t205 92t219 33q125 0 211 -25.5t138.5 -70t75.5 -103t23 -124.5q0 -20 -2.5 -40t-5.5 -40l-123 -629h146l-23 -115h-530q-83 0 -149.5 26t-113 71t-71.5 106.5t-25 132.5q0 86 38 167.5t103 144.5t151 101t181 38h285 q2 9 3 18.5t1 20.5q0 41 -17.5 77.5t-54.5 63.5t-95.5 43t-139.5 16q-97 0 -189.5 -29t-174 -80.5t-150 -122.5t-117.5 -156t-76.5 -180.5t-27.5 -195.5q0 -107 35 -197.5t99.5 -156.5t157 -103.5t207.5 -37.5l-22 -121q-135 0 -248.5 46t-196.5 128t-129.5 194t-46.5 244z M664 438q0 -48 16.5 -88.5t46.5 -70.5t72.5 -47t95.5 -17h254l108 563h-249q-68 0 -130 -28t-109.5 -75t-76 -108.5t-28.5 -128.5z" />
<glyph unicode="A" d="M-88 0l803 1440h155l248 -1440h-143l-76 459h-580l-253 -459h-154zM383 582h496l-86 522q-5 25 -9 57t-7 61q-4 33 -7 68h-4q-15 -35 -31 -68q-14 -29 -29.5 -61t-29.5 -57z" />
<glyph unicode="B" horiz-adv-x="1284" d="M90 0l281 1440h463q49 0 92.5 -6.5t79.5 -20.5q86 -34 134 -104t48 -172q0 -68 -18.5 -127t-52 -107t-79.5 -84t-100 -59v-4q40 -14 72.5 -40t56 -62.5t36.5 -82t13 -98.5q0 -78 -21.5 -146t-59.5 -123t-90.5 -97t-113.5 -68q-48 -20 -99 -29.5t-105 -9.5h-537zM256 127 h369q38 0 76.5 6.5t72.5 22.5q43 20 79 51t61.5 71.5t40 89.5t14.5 105q0 102 -63 160.5t-173 58.5h-366zM391 815h348q61 0 115.5 23t95.5 64t65.5 97.5t24.5 124.5q0 87 -52 138t-152 51h-349z" />
<glyph unicode="C" horiz-adv-x="1489" d="M121 594q0 119 32.5 230t90 207.5t137.5 176.5t175 136.5t201.5 88t217.5 31.5q66 0 123.5 -8t105.5 -21t87.5 -30t70.5 -34q73 -41 121 -93l-90 -100q-44 43 -105 76q-26 14 -58.5 28t-71 25t-83.5 17.5t-96 6.5q-95 0 -185 -26.5t-169 -75t-144.5 -116t-113 -149 t-73.5 -174.5t-26 -192q0 -105 33 -195t95 -155t150.5 -102t198.5 -37q54 0 104.5 8t96.5 21.5t86 30.5t74 35q79 41 143 95l70 -111q-72 -60 -162 -107q-38 -20 -84 -39t-98.5 -34t-111.5 -24t-122 -9q-145 0 -260 46.5t-195 129t-122.5 196t-42.5 247.5z" />
<glyph unicode="D" horiz-adv-x="1511" d="M90 0l281 1440h436q145 0 261 -37t197 -108.5t124 -175.5t43 -238q0 -121 -28.5 -233.5t-81 -210t-128.5 -178.5t-170.5 -138.5t-206.5 -89t-237 -31.5h-490zM254 127h309q157 0 289 57t228 157.5t150 236.5t54 294q0 107 -34 189t-97 138t-153.5 85t-204.5 29h-308z" />
<glyph unicode="E" horiz-adv-x="1163" d="M90 0l281 1440h811l-27 -127h-668l-102 -525h547l-25 -126h-545l-106 -535h705l-23 -127h-848z" />
<glyph unicode="F" horiz-adv-x="1057" d="M90 0l281 1440h757l-24 -127h-617l-104 -541h528l-24 -127h-529l-127 -645h-141z" />
<glyph unicode="G" horiz-adv-x="1550" d="M119 578q0 120 32 232t89.5 210.5t137.5 180t175.5 140t204 91t223.5 32.5q64 0 119 -7t102.5 -19t86.5 -27t70 -30q73 -37 124 -83l-90 -102q-45 37 -106 67q-53 26 -128.5 47t-175.5 21q-98 0 -189 -27.5t-170.5 -77.5t-145.5 -119t-113 -152t-73 -177t-26 -194 q0 -107 34 -194.5t95.5 -150t147.5 -96.5t190 -34q54 0 104 9.5t95 25t85 35.5t73 41q78 49 141 112l47 229h-246l25 127h379l-133 -688h-132l23 111q2 11 4.5 22t4.5 20q3 10 5 19h-4q-59 -56 -134 -99q-32 -18 -70.5 -36t-83 -31.5t-94.5 -22t-105 -8.5q-131 0 -241 44 t-189.5 123.5t-123.5 190.5t-44 245z" />
<glyph unicode="H" horiz-adv-x="1536" d="M90 0l281 1440h141l-127 -656h834l129 656h141l-281 -1440h-143l129 657h-834l-129 -657h-141z" />
<glyph unicode="I" horiz-adv-x="559" d="M90 0l281 1440h141l-281 -1440h-141z" />
<glyph unicode="J" horiz-adv-x="1061" d="M14 301q0 25 2 48.5t9 58.5l10 53h141l-8 -51q-5 -23 -7.5 -45t-2.5 -43q0 -48 11.5 -87t37 -67t66 -43.5t98.5 -15.5q47 0 96.5 15t93.5 49.5t78.5 90.5t50.5 139l174 910h-350l25 127h491l-203 -1051q-22 -114 -70 -193t-110.5 -128t-135 -71t-142.5 -22t-134.5 18.5 t-113.5 58t-78 101t-29 148.5z" />
<glyph unicode="K" horiz-adv-x="1229" d="M90 0l281 1440h141l-121 -625h234l518 625h168l-572 -686v-4l314 -750h-154l-283 688h-249l-136 -688h-141z" />
<glyph unicode="L" horiz-adv-x="1044" d="M90 0l281 1440h141l-256 -1313h668l-27 -127h-807z" />
<glyph unicode="M" horiz-adv-x="1747" d="M43 0l395 1440h144l211 -846q7 -28 13.5 -59t11.5 -57q6 -31 11 -60h5q16 28 34 59q15 26 33.5 57t36.5 60l543 846h149l-166 -1440h-139l119 1008q3 29 8 64t10.5 65t9.5 50.5t5 20.5h-4q-19 -37 -39 -73q-17 -31 -37.5 -65.5t-38.5 -61.5l-481 -740h-134l-196 740 q-8 26 -15 61.5t-12 67.5q-6 37 -12 75h-4q-6 -37 -13 -73q-6 -31 -13 -66.5t-15 -64.5l-279 -1008h-141z" />
<glyph unicode="N" horiz-adv-x="1530" d="M90 0l281 1440h127l532 -1037q14 -27 28.5 -60.5t25.5 -63.5l26 -70h4q3 35 7 69q3 29 7.5 62.5t10.5 62.5l202 1037h142l-281 -1440h-127l-532 1036q-14 27 -28.5 60.5t-26.5 63.5q-14 35 -27 71h-4q-3 -35 -7 -69q-4 -29 -8.5 -63t-9.5 -63l-201 -1036h-141z" />
<glyph unicode="O" horiz-adv-x="1683" d="M119 598q0 117 33.5 227t93 206t141 176t177.5 137t203 88.5t216 31.5q140 0 255.5 -45t198 -126t128 -192t45.5 -243q0 -119 -34 -231t-94 -210t-142 -179.5t-178 -139.5t-203 -90.5t-216 -32.5q-140 0 -254.5 46.5t-197 129.5t-127.5 197t-45 250zM264 602 q0 -108 35 -199t99 -156t152 -101.5t195 -36.5q89 0 176.5 26.5t167 75.5t148 116.5t118.5 150.5t78.5 177.5t28.5 196.5q0 105 -35 193t-98.5 151.5t-152 99t-195.5 35.5q-90 0 -178 -26t-168 -73.5t-147.5 -114t-117.5 -147.5t-78 -174.5t-28 -193.5z" />
<glyph unicode="P" horiz-adv-x="1229" d="M90 0l281 1440h471q68 0 124.5 -11.5t102.5 -37.5q81 -44 125.5 -122t44.5 -182q0 -84 -23.5 -159t-64.5 -137t-97.5 -109.5t-123.5 -75.5q-50 -20 -103 -30.5t-106 -10.5h-379l-111 -565h-141zM367 692h340q45 0 87 8t80 25q48 21 88 55t69 79t45 101t16 121 q0 112 -70 172t-197 60h-338z" />
<glyph unicode="Q" horiz-adv-x="1708" d="M119 598q0 117 33.5 227t93 206t141.5 176t178 137t203 88.5t217 31.5q140 0 255 -45t197.5 -126t127.5 -192t45 -243q0 -94 -20.5 -182t-58 -168.5t-90 -151.5t-116.5 -131l139 -174l-94 -84l-139 178q-106 -80 -229 -125t-257 -45q-140 0 -255.5 46.5t-198 129.5 t-127.5 197t-45 250zM266 602q0 -108 35 -199t98.5 -156t151.5 -101.5t194 -36.5q109 0 210.5 36.5t191.5 104.5l-143 182l94 84l143 -186q50 51 90.5 110.5t69.5 126t45 138.5t16 147q0 105 -35 193t-98 151.5t-151 99t-195 35.5q-91 0 -179 -26t-167.5 -73.5t-147.5 -114 t-117.5 -147.5t-77.5 -174.5t-28 -193.5z" />
<glyph unicode="R" horiz-adv-x="1282" d="M90 0l281 1440h473q57 0 107.5 -8.5t92.5 -30.5q81 -38 125.5 -113.5t44.5 -177.5q0 -85 -26.5 -162t-74.5 -139t-115 -106t-148 -62v-4q3 -6 7 -15q3 -8 7.5 -18.5t9.5 -25.5l205 -578h-151l-211 606h-367l-117 -606h-143zM375 733h334q73 0 138.5 26t115 73.5t78 114.5 t28.5 149q0 102 -63.5 159.5t-178.5 57.5h-340z" />
<glyph unicode="S" horiz-adv-x="1102" d="M20 160l95 100q37 -42 89 -75q45 -28 110 -51t153 -23q64 0 125.5 20.5t109.5 59t77.5 93t29.5 122.5q0 55 -25.5 96t-67.5 73.5t-95.5 60t-109.5 56t-109.5 60t-95.5 72t-67.5 93t-25.5 123.5q0 84 39 160.5t106.5 135t159.5 93.5t197 35q99 0 170.5 -22t119.5 -48 q55 -31 93 -69l-84 -108q-33 31 -78 56q-38 21 -93 38.5t-126 17.5q-78 0 -144 -25.5t-114 -66.5t-74.5 -93t-26.5 -104q0 -50 25.5 -87t67.5 -67.5t95.5 -57.5t109.5 -55.5t109.5 -61.5t95.5 -76t67.5 -99t25.5 -130q0 -86 -36.5 -164t-101.5 -137t-154.5 -94.5 t-194.5 -35.5q-58 0 -108 8t-92 21t-77 29.5t-62 33.5q-64 40 -108 93z" />
<glyph unicode="T" horiz-adv-x="1192" d="M143 1313l23 127h1173l-22 -127h-518l-254 -1313h-144l256 1313h-514z" />
<glyph unicode="U" horiz-adv-x="1477" d="M156 393q0 55 12 117l182 930h142l-183 -934q-6 -29 -8 -52t-2 -44q0 -72 23 -128t67 -94.5t107.5 -58.5t144.5 -20q92 0 172.5 27t144 79t107 126t61.5 169l183 930h143l-188 -948q-24 -120 -79 -216t-136 -162.5t-185 -102.5t-225 -36q-108 0 -197 28t-152.5 82 t-98.5 131.5t-35 176.5z" />
<glyph unicode="V" horiz-adv-x="1260" d="M178 1440h146l184 -1094q5 -28 8 -60.5t5 -60.5q3 -33 5 -65h4q1 -1 9.5 17.5t22 47t30 61t31.5 60.5l612 1094h160l-813 -1440h-154z" />
<glyph unicode="W" horiz-adv-x="1909" d="M236 1440h145l63 -1118q2 -28 2.5 -55.5t0.5 -49.5q0 -26 -1 -49h5q9 23 20 49q9 22 21 49.5t26 55.5l537 1118h141l72 -1118q2 -26 2 -53t1 -50q0 -26 1 -51h4q8 24 19 50q8 22 19.5 49.5t22.5 54.5l498 1118h156l-654 -1440h-172l-69 1014q-2 32 -3 69.5t-1 69.5v76h-5 q-15 -35 -31 -72q-14 -32 -30.5 -69t-32.5 -72l-491 -1016h-168z" />
<glyph unicode="X" horiz-adv-x="1198" d="M-66 0l605 758l-285 682h154l170 -422q11 -28 22 -57t20 -53q11 -28 21 -54h4q17 25 36 52q17 23 37.5 52t43.5 58l340 424h170l-561 -697l319 -743h-151l-207 492q-12 28 -23 56.5t-19 51.5q-10 26 -18 51h-4l-35 -50q-16 -23 -36.5 -50.5t-42.5 -54.5l-396 -496h-164z " />
<glyph unicode="Y" horiz-adv-x="1155" d="M176 1440h152l202 -522q11 -29 21.5 -59t18.5 -56q10 -30 18 -58h4q18 28 37 57q17 25 38 54.5t44 58.5l405 525h172l-649 -826l-121 -614h-141l123 618z" />
<glyph unicode="Z" horiz-adv-x="1210" d="M-35 0l21 100l942 1082q25 29 48.5 53.5t40.5 41.5q20 20 38 36v4q-11 -1 -26 -2q-13 -1 -32.5 -1.5t-46.5 -0.5h-690l27 127h979l-21 -101l-944 -1081q-26 -29 -49 -53.5t-40 -41.5q-20 -20 -38 -36v-4q10 1 26 2q13 1 33 1.5t46 0.5h737l-25 -127h-1026z" />
<glyph unicode="[" horiz-adv-x="582" d="M59 -195l330 1690h277l-23 -115h-149l-281 -1460h147l-22 -115h-279z" />
<glyph unicode="\" horiz-adv-x="791" d="M242 1520h125l206 -1606h-124z" />
<glyph unicode="]" horiz-adv-x="569" d="M-82 -195l23 115h149l283 1460h-150l23 115h278l-327 -1690h-279z" />
<glyph unicode="^" horiz-adv-x="1241" d="M31 512l405 928h96l406 -928h-133l-320 758l-319 -758h-135z" />
<glyph unicode="_" horiz-adv-x="1188" d="M-76 -119l23 119h1057l-23 -119h-1057z" />
<glyph unicode="`" horiz-adv-x="1032" d="M281 1784h151l96 -244h-118z" />
<glyph unicode="a" horiz-adv-x="1067" d="M16 236q0 83 31.5 145t85 107t124 73.5t147.5 45.5t156.5 23.5t150.5 6.5h65q9 42 12 66t3 42q0 39 -11 72.5t-35.5 58.5t-65 39.5t-99.5 14.5q-64 0 -120.5 -15.5t-99.5 -34.5q-50 -22 -92 -49l-45 117q47 29 104 53q49 20 116.5 37t148.5 17q77 0 139.5 -17t107 -53 t69 -91.5t24.5 -131.5q0 -52 -12 -113l-127 -649h-134l25 119q4 19 7.5 35t7.5 28q4 14 8 25h-5q1 0 -9 -17t-31 -43t-53 -56t-74 -56t-94.5 -43t-114.5 -17t-118.5 17.5t-99 51t-67.5 82t-25 110.5zM160 254q0 -32 11.5 -60.5t36 -51t62 -35.5t88.5 -13q72 0 136.5 36 t116.5 92t88 125.5t51 137.5l8 37h-60q-43 0 -99.5 -2.5t-116.5 -11.5t-117.5 -26.5t-103 -47t-73.5 -73.5t-28 -107z" />
<glyph unicode="b" horiz-adv-x="1210" d="M51 0l279 1440h139l-96 -498q-5 -18 -9.5 -34.5t-8.5 -30.5q-4 -16 -9 -29h4q28 45 68 83t88.5 65.5t103.5 43t113 15.5q91 0 161.5 -29t119 -83t73.5 -130.5t25 -171.5q0 -147 -47.5 -269.5t-126 -210.5t-179.5 -137t-208 -49q-57 0 -108.5 13.5t-93.5 40.5t-73.5 66.5 t-48.5 90.5h-4q0 -13 -1 -28q-1 -13 -3 -29.5t-6 -34.5l-19 -94h-133zM274 391q0 -59 14.5 -112t46 -93t80.5 -63t117 -23q75 0 150.5 36.5t137 104.5t100 166.5t38.5 223.5q0 69 -18 124t-51.5 93.5t-81.5 59t-109 20.5q-64 0 -120 -21.5t-103 -59t-84.5 -89t-63 -111 t-39.5 -125t-14 -131.5z" />
<glyph unicode="c" horiz-adv-x="1124" d="M68 414q0 93 24.5 176.5t68 155t103 128.5t130 97.5t148.5 62t158 21.5q98 0 168 -23t116 -51q54 -33 89 -74l-84 -94q-31 31 -72 57q-36 22 -88.5 40t-121.5 18q-92 0 -181 -37.5t-159 -104.5t-113 -159t-43 -201q0 -74 25 -134t69.5 -103t106 -66t135.5 -23 q79 0 145 22.5t114 50.5q56 32 101 73l43 -117q-50 -44 -112 -77q-54 -29 -129 -53t-168 -24q-105 0 -192.5 31.5t-149.5 89t-96.5 138.5t-34.5 180z" />
<glyph unicode="d" horiz-adv-x="1210" d="M70 389q0 147 47 269.5t125.5 210.5t180.5 137t212 49q54 0 103.5 -13t91.5 -38.5t73.5 -64t48.5 -89.5h4q0 13 1 27q1 12 2.5 27t5.5 32l98 504h139l-278 -1440h-136l21 109q6 33 14 57q4 13 8 24h-4q-25 -41 -62.5 -80t-85 -69t-105 -48t-121.5 -18q-93 0 -164.5 29 t-120 83t-73.5 130.5t-25 171.5zM213 397q0 -69 18 -124t51.5 -93.5t82 -59t110.5 -20.5q96 0 174 48t133 125t85 173t30 191q0 60 -15 113t-46.5 92.5t-79.5 62.5t-115 23q-75 0 -151.5 -36.5t-138 -104.5t-100 -167t-38.5 -223z" />
<glyph unicode="e" horiz-adv-x="1133" d="M70 410q0 84 20.5 164t58 152t91 132t120 104t144 68.5t164.5 24.5q97 0 167.5 -28t117 -78t69 -118t22.5 -149q0 -30 -5 -61t-10 -56q-7 -30 -15 -57h-791q-5 -23 -6.5 -44.5t-1.5 -43.5q0 -66 21 -124.5t62 -102t103 -68.5t144 -25q70 0 131 19.5t107 42.5q54 27 98 63 l45 -114q-50 -38 -111 -68q-52 -26 -122.5 -47t-151.5 -21q-106 0 -193 31.5t-148.5 88.5t-95.5 137t-34 178zM250 623h645q1 11 3 22q1 10 2 22.5t1 26.5q0 61 -17.5 107t-49 76.5t-74 45.5t-92.5 15q-65 0 -127.5 -21t-118 -61t-100 -98.5t-72.5 -134.5z" />
<glyph unicode="f" horiz-adv-x="662" d="M102 0l177 903h-129l22 119h129l10 53q16 83 45.5 143.5t67 102t79.5 67t83 39.5t78 18.5t63 4.5q17 0 31 -0.5t24 -1.5q11 -1 21 -2l-27 -125q-6 1 -13 2q-6 1 -14.5 1.5t-19.5 0.5q-30 0 -71 -8t-82 -35t-75.5 -78t-51.5 -137l-11 -45h264l-22 -119h-262l-176 -903 h-140z" />
<glyph unicode="g" horiz-adv-x="1194" d="M10 -344l68 106q35 -19 77 -34q36 -13 85 -23t108 -10q75 0 143 18.5t124 58t96.5 100.5t58.5 146l21 95q2 14 5.5 29t7.5 27q4 14 9 26h-4q-60 -90 -144 -139.5t-198 -49.5q-92 0 -164.5 29t-122.5 83t-77 129.5t-27 168.5q0 72 15.5 147.5t46.5 146.5t76.5 134 t105.5 109.5t134.5 74t161.5 27.5q52 0 103.5 -9t95.5 -30.5t78 -56.5t51 -87h4q-1 6 -1 14q0 14 3 32l23 112h135l-199 -1018q-24 -123 -79 -207t-129.5 -136.5t-163 -75.5t-179.5 -23q-57 0 -108 7.5t-95 20t-80.5 28t-64.5 30.5zM219 424q0 -68 18 -122t52.5 -92 t84.5 -58.5t115 -20.5q68 0 124.5 24t100.5 65t77 96t55 115.5t32.5 124t10.5 122.5q0 70 -20 117.5t-55 77t-83 42.5t-104 13q-98 0 -174 -44t-128 -115.5t-79 -162t-27 -182.5z" />
<glyph unicode="h" horiz-adv-x="1217" d="M49 0l281 1440h139l-107 -557q-4 -18 -8 -34.5t-8 -29.5q-4 -15 -8 -28h4q20 39 61 85t99 86t131.5 66.5t159.5 26.5q140 0 216 -66.5t76 -200.5q0 -30 -4 -64.5t-12 -72.5l-125 -651h-139l119 616q6 36 11 71t5 67q0 87 -49 128.5t-127 41.5q-87 0 -166.5 -36.5 t-144 -98t-109.5 -142.5t-63 -170l-93 -477h-139z" />
<glyph unicode="i" horiz-adv-x="475" d="M49 0l201 1030h139l-201 -1030h-139zM289 1266l37 174h149l-35 -174h-151z" />
<glyph unicode="j" horiz-adv-x="475" d="M-309 -416l24 121q5 -1 12 -1q6 -1 14 -1h19q29 0 70.5 8t83.5 35.5t77.5 80t53.5 140.5l205 1063h139l-207 -1067q-16 -86 -45 -148t-65 -104.5t-77 -69t-81 -40.5t-76.5 -18.5t-64.5 -4.5q-38 0 -59 3q-12 1 -23 3zM289 1266l35 174h149l-33 -174h-151z" />
<glyph unicode="k" horiz-adv-x="1026" d="M49 0l283 1440h139l-158 -803h160l385 393h176l-448 -455v-4l280 -571h-153l-246 514h-176l-103 -514h-139z" />
<glyph unicode="l" horiz-adv-x="506" d="M80 182q0 16 1.5 34t6.5 40l231 1184h140l-228 -1166q-3 -17 -4.5 -34t-1.5 -29q0 -32 9 -50.5t23.5 -27.5t31.5 -11.5t33 -2.5h12.5t9.5 1q4 0 8 1l-26 -125q-7 -1 -15 -2q-7 -1 -15 -1.5t-17 -0.5q-30 0 -65 7.5t-64.5 28t-49.5 57.5t-20 97z" />
<glyph unicode="m" horiz-adv-x="1876" d="M51 0l199 1030h137l-29 -151q-3 -17 -7.5 -33.5t-9 -30t-7.5 -21.5t-2 -8h4q28 54 73.5 103t101.5 85.5t120 58.5t131 22q71 0 121 -17.5t82 -51t48 -81.5t19 -108h4q30 54 75 101t100.5 82t118.5 55t128 20q143 0 215 -68.5t72 -200.5q0 -32 -4 -66.5t-12 -72.5 l-125 -647h-140l119 608q8 37 12 75t4 67q0 39 -9 71.5t-29.5 56.5t-54.5 37t-85 13q-83 0 -154.5 -40t-127 -103.5t-93.5 -142t-53 -155.5l-96 -487h-139l119 608q8 37 12 76t4 70q0 37 -8 68.5t-27.5 55t-52 37t-82.5 13.5q-81 0 -153.5 -38.5t-130.5 -101.5t-98.5 -142.5 t-55.5 -160.5l-95 -485h-139z" />
<glyph unicode="n" horiz-adv-x="1217" d="M49 0l201 1030h135l-27 -147q-3 -18 -7.5 -35t-8.5 -31q-5 -16 -10 -31h4q20 39 61 86t100 87.5t133.5 68t160.5 27.5q140 0 217 -66.5t77 -200.5q0 -30 -4 -64.5t-12 -72.5l-127 -651h-139l119 616q8 36 12 71t4 67q0 43 -12.5 75t-35.5 53t-55.5 31.5t-72.5 10.5 q-87 0 -166.5 -36.5t-143.5 -98t-108.5 -142.5t-62.5 -170l-93 -477h-139z" />
<glyph unicode="o" horiz-adv-x="1276" d="M68 426q0 88 24.5 169t68 150.5t103 127t130 98t148.5 62.5t158 22q105 0 191.5 -33t148.5 -92t96.5 -141t34.5 -179q0 -89 -25 -170.5t-68.5 -152t-103.5 -128.5t-130 -98.5t-148 -63t-157 -22.5q-105 0 -192 33.5t-149 93t-96 142.5t-34 182zM211 430q0 -72 24 -132.5 t67.5 -104.5t104 -68.5t134.5 -24.5q90 0 177 39t156 107t111.5 160t42.5 198q0 72 -24 131.5t-67.5 102t-104.5 66.5t-134 24q-92 0 -179.5 -38.5t-156 -106t-110 -158t-41.5 -195.5z" />
<glyph unicode="p" horiz-adv-x="1210" d="M-29 -410l279 1440h133l-18 -100q-4 -17 -8 -33t-8 -28q-4 -14 -9 -27h4q27 42 64.5 80.5t85 68t104.5 47t123 17.5q91 0 162 -29t120 -83t74 -130.5t25 -171.5q0 -98 -21.5 -185.5t-60 -161.5t-90.5 -133t-114 -100.5t-131 -63.5t-140 -22q-56 0 -107 13t-93.5 38.5 t-74 64.5t-49.5 91h-4q0 -13 -2 -29q-2 -14 -4 -31.5t-6 -37.5l-96 -494h-138zM274 397q0 -60 15.5 -114t47.5 -94.5t80.5 -64.5t114.5 -24q50 0 101 16.5t98.5 47.5t89 77t72 105t48 130.5t17.5 154.5q0 69 -17.5 124t-51 93.5t-82 59t-109.5 20.5q-63 0 -119 -21.5 t-103 -59.5t-84.5 -89t-63.5 -110t-40 -123.5t-14 -127.5z" />
<glyph unicode="q" horiz-adv-x="1210" d="M70 387q0 99 21.5 187t60 162t92 133t116.5 100.5t133.5 63.5t143.5 22q58 0 108.5 -13.5t91.5 -39.5t71 -64.5t46 -89.5h4q0 10 2 22q2 11 4 25t5 31l20 104h133l-278 -1440h-139l96 496q4 20 8.5 37.5t8.5 31.5q4 16 9 29h-4q-24 -39 -59.5 -76.5t-82 -67t-104 -47.5 t-124.5 -18q-92 0 -163.5 29t-120.5 82.5t-74 129.5t-25 171zM213 397q0 -69 18 -124t52 -93.5t82.5 -59t109.5 -20.5q64 0 120.5 22t103.5 60.5t84 90.5t63 112t39.5 124t13.5 128q0 60 -15 113t-46.5 92.5t-79.5 62.5t-115 23q-75 0 -152 -36.5t-138.5 -104.5t-100.5 -167 t-39 -223z" />
<glyph unicode="r" horiz-adv-x="729" d="M51 0l199 1030h137l-37 -182q-4 -17 -8 -33t-8 -29q-4 -15 -8 -28h4q26 55 64 106t86.5 90t105.5 62.5t121 23.5q37 0 61 -6l-27 -137q-11 2 -23 3t-28 1q-55 0 -105 -22.5t-94 -61.5t-81 -90.5t-65.5 -108.5t-49 -117t-31.5 -116l-74 -385h-139z" />
<glyph unicode="s" horiz-adv-x="905" d="M-6 125l84 92q31 -33 74 -59q37 -22 91.5 -40t127.5 -18q42 0 85 12t78.5 35.5t57.5 59t22 82.5q0 35 -20 61t-53 47.5t-75 40t-85.5 38.5t-85.5 43.5t-75 54.5t-53 72t-20 95q0 77 33.5 135.5t87 98.5t121.5 60t137 20q82 0 142 -18t99 -39q46 -25 77 -56l-78 -98 q-24 24 -59 43q-30 16 -75 29.5t-108 13.5q-39 0 -81 -10t-77.5 -32t-58 -57.5t-22.5 -85.5q0 -35 20 -61.5t53 -47.5t75.5 -40t86 -39t86 -43.5t75.5 -55t53 -73t20 -96.5q0 -69 -30.5 -126.5t-83 -99t-121.5 -65t-146 -23.5q-97 0 -167.5 23t-118.5 52q-55 33 -93 75z" />
<glyph unicode="t" horiz-adv-x="682" d="M127 903l23 119h137l57 293h137l-59 -293h260l-23 -119h-258l-98 -510q-5 -26 -7.5 -49t-2.5 -43q0 -61 17 -97t42.5 -55.5t56.5 -25.5t60 -6q14 0 24.5 0.5t18.5 1.5q9 1 16 2l-24 -125q-7 -1 -16 -2q-8 -1 -17 -1.5t-20 -0.5q-50 0 -103 11t-96.5 42.5t-71.5 88.5 t-28 149q0 24 2.5 52t7.5 60l100 508h-135z" />
<glyph unicode="u" horiz-adv-x="1206" d="M94 242q0 31 4.5 65t12.5 72l125 651h139l-119 -612q-8 -40 -11 -75.5t-3 -66.5q0 -37 8.5 -68t29 -53.5t55 -35.5t87.5 -13q87 0 164.5 39t139.5 103t104.5 144.5t58.5 164.5l92 473h139l-200 -1030h-138l29 147q4 18 8 35t9 31q4 16 10 31h-4q-21 -39 -61 -85.5 t-97.5 -87.5t-131 -68.5t-161.5 -27.5q-58 0 -110.5 14t-92 45.5t-63 82.5t-23.5 125z" />
<glyph unicode="v" horiz-adv-x="979" d="M96 1030h140l135 -760q3 -17 5 -38t4 -41q2 -23 3 -46h4q9 21 20 43q9 19 20.5 40.5t23.5 41.5l430 760h151l-594 -1030h-147z" />
<glyph unicode="w" horiz-adv-x="1642" d="M115 1030h139l100 -772q2 -20 3.5 -39.5t2.5 -35.5l2 -36h5q8 18 17 36q8 16 17.5 35.5t20.5 39.5l399 768h140l104 -768q2 -18 3.5 -37t3.5 -36q2 -19 3 -38h4q7 18 16 36q7 16 16 35.5t19 39.5l402 772h149l-546 -1030h-152l-111 739q-2 18 -3.5 37.5t-3.5 36.5 q-2 19 -3 37h-4q-8 -18 -17 -37q-8 -17 -17 -36.5t-19 -37.5l-391 -739h-152z" />
<glyph unicode="x" horiz-adv-x="1001" d="M-63 0l471 543l-250 487h155l162 -342q5 -10 9 -20.5t8 -19.5q4 -11 8 -21h2q7 8 14 18q6 8 14 18t17 21l289 346h168l-435 -500l269 -530h-150l-186 383q-5 9 -9.5 19.5t-8.5 19.5q-4 11 -9 20h-4q-5 -8 -11 -17q-5 -8 -12.5 -17.5t-15.5 -20.5l-330 -387h-165z" />
<glyph unicode="y" horiz-adv-x="1022" d="M-184 -369l69 105q12 -12 30 -21q15 -8 36.5 -14t48.5 -6q36 0 68 12.5t60.5 35t53.5 53t47 65.5l93 149l-234 1020h145l160 -770q4 -20 7 -38.5t6 -34.5q3 -18 6 -35h2q8 17 18 35q8 15 18 33.5t21 37.5l447 772h157l-753 -1249q-62 -103 -143.5 -157t-174.5 -54 q-45 0 -79.5 9.5t-58.5 20.5q-28 13 -50 31z" />
<glyph unicode="z" horiz-adv-x="1034" d="M-33 0l17 90l706 723q17 18 35 35t32 30q17 15 31 29v4q-10 -1 -24 -2q-12 -1 -30.5 -1.5t-43.5 -0.5h-524l24 123h820l-19 -92l-708 -721q-19 -19 -37 -35.5t-32 -29.5q-17 -15 -32 -29v-4q11 1 26 2q13 1 32 1.5t45 0.5h567l-23 -123h-862z" />
<glyph unicode="{" horiz-adv-x="686" d="M102 598l25 127q50 9 94 37q38 24 73.5 71t51.5 128l35 174q17 86 45 146t61.5 100t71 63t73.5 34t68.5 14t55.5 3h30l-20 -115h-18q-11 0 -29.5 -2t-41 -10t-47 -24.5t-48 -45t-43 -71t-31.5 -103.5l-41 -206q-16 -80 -51 -129t-72 -77q-43 -33 -92 -48v-5 q33 -17 59 -46q23 -25 41.5 -64t18.5 -96q0 -26 -6 -60l-43 -219q-5 -26 -8 -48t-3 -42q0 -59 18 -92t42.5 -49.5t50.5 -20.5t41 -4h18l-22 -115q-4 -1 -9 -1q-5 -1 -10.5 -1h-13.5q-15 0 -38.5 3t-51 12.5t-55 27t-49.5 46.5t-36 71t-14 100q0 25 3 54t10 61l36 189 q4 17 5.5 33t1.5 28q0 29 -6 52t-15.5 40.5t-21.5 30t-25 21.5q-30 20 -68 28z" />
<glyph unicode="|" horiz-adv-x="631" d="M256 -322v1936h129v-1936h-129z" />
<glyph unicode="}" horiz-adv-x="680" d="M-90 -197l22 115h19q12 0 30.5 2t41 10t47 24.5t47 45t41 71t30.5 103.5l45 229q8 42 21.5 75t30 59.5t35.5 46t37 33.5q43 33 92 47v4q-34 17 -60 45q-23 24 -41 61.5t-18 93.5q0 14 1.5 28.5t4.5 31.5l39 196q5 26 7.5 48t2.5 42q0 58 -18 91.5t-42.5 50t-50.5 20.5 t-41 4h-18l23 115q4 0 9 1q5 0 10.5 0.5t12.5 0.5q15 0 39 -3t51 -12.5t54.5 -27t49.5 -46.5t36 -71t14 -100q0 -51 -12 -115l-33 -164q-6 -36 -6 -63q0 -59 20.5 -93.5t46.5 -51.5q30 -21 68 -27l-25 -127q-50 -8 -93 -36q-18 -12 -37 -29.5t-36.5 -41.5t-31 -56t-21.5 -73 l-39 -196q-17 -86 -44.5 -146t-61.5 -100t-71 -63.5t-73 -35.5t-68.5 -15t-55.5 -3h-11t-10 1q-5 0 -10 1z" />
<glyph unicode="~" horiz-adv-x="1206" d="M131 428q0 84 19 144.5t53.5 98.5t82.5 56t105 18q56 0 96 -16t71 -39.5t56 -51t51.5 -51t58 -39.5t75.5 -16q46 0 74.5 21.5t44 53t21 67t5.5 63.5h121q0 -84 -19 -144.5t-53.5 -98.5t-82.5 -56t-105 -18q-56 0 -96 16t-71 39.5t-56 51t-51.5 51t-58.5 39.5t-75 16 q-46 0 -74.5 -21.5t-44 -52.5t-21 -67t-5.5 -64h-121z" />
<glyph unicode="&#xa1;" horiz-adv-x="557" d="M8 -410l215 1063h131l-202 -1063h-144zM248 868l33 162h161l-34 -162h-160z" />
<glyph unicode="&#xa2;" horiz-adv-x="1174" d="M129 586q0 81 18 163.5t51.5 159t82 143.5t110 118.5t135.5 83.5t158 38l35 172h115l-33 -176q51 -8 92 -25.5t73.5 -40t56.5 -48.5t41 -52q40 -61 58 -133l-131 -49q-14 62 -47 110q-14 21 -34.5 40.5t-47.5 35.5t-61.5 25.5t-77.5 9.5q-102 0 -185 -47.5t-141.5 -127.5 t-90.5 -185t-32 -219q0 -67 16.5 -122.5t50.5 -95t87 -61.5t125 -22q42 0 79.5 9.5t70 24.5t60 34.5t49.5 40.5q52 48 91 110l127 -54q-49 -80 -116 -144q-29 -27 -64 -54t-77 -49.5t-91 -37.5t-104 -18l-33 -170h-115l33 177q-76 12 -138 46.5t-105.5 90t-67 131 t-23.5 168.5z" />
<glyph unicode="&#xa3;" horiz-adv-x="1188" d="M2 0l25 127h127l104 541h-90l22 112h89l63 318q15 77 57.5 143.5t104.5 116t141.5 78t169.5 28.5q77 0 135.5 -19.5t98.5 -42.5q47 -27 81 -61l-98 -92q-24 23 -57 41q-28 15 -69 28t-93 13q-68 0 -124 -20.5t-98.5 -55t-70 -81t-37.5 -97.5l-59 -297h393l-22 -112h-392 l-106 -541h694l-24 -127h-965z" />
<glyph unicode="&#xa5;" horiz-adv-x="1225" d="M170 432l18 105h334l19 79l-39 101h-277l21 104h217l-238 619h154l192 -512q11 -30 22.5 -62.5t19.5 -59.5q10 -32 18 -61h4q16 29 35 61q17 26 38.5 58.5t45.5 63.5l393 512h170l-479 -619h215l-21 -104h-274l-74 -101l-18 -79h329l-18 -105h-330l-86 -432h-143l86 432 h-334z" />
<glyph unicode="&#xa7;" horiz-adv-x="850" d="M-8 -37l84 88q17 -16 41 -28q20 -11 48.5 -19t65.5 -8q63 0 112.5 22t84.5 60t54.5 89t21.5 109l39 887h123l-39 -897q-3 -78 -31.5 -149t-79 -125t-122.5 -86.5t-163 -32.5q-58 0 -102 14t-75 31q-36 19 -62 45zM201 174l37 897q3 78 31 149t79 125t123 86.5t164 32.5 q57 0 101.5 -14t75.5 -31q36 -20 62 -45l-83 -88q-18 15 -42 27q-20 11 -49.5 19.5t-66.5 8.5q-62 0 -111.5 -22t-84.5 -60t-54.5 -89.5t-22.5 -110.5l-36 -885h-123z" />
<glyph unicode="&#xa8;" horiz-adv-x="1032" d="M176 1608l35 176h125l-33 -176h-127zM485 1608l35 176h127l-35 -176h-127z" />
<glyph unicode="&#xa9;" horiz-adv-x="1722" d="M152 721q0 103 26 198.5t72.5 178t112.5 150t146.5 115.5t172.5 74.5t192 26.5q102 0 196 -26.5t175.5 -74.5t148.5 -115.5t114.5 -150t73.5 -178t26 -198.5q0 -105 -26 -200.5t-73.5 -178.5t-114.5 -150.5t-148.5 -116t-175.5 -74.5t-196 -26q-100 0 -192 26 t-172.5 74.5t-146.5 116t-112.5 150.5t-72.5 179t-26 200zM272 721q0 -135 46.5 -251t127.5 -201.5t191 -134t237 -48.5q131 0 243.5 48.5t195 134t129.5 201.5t47 251q0 133 -47 248.5t-129.5 201t-195 134.5t-243.5 49q-127 0 -237 -49t-191 -134.5t-127.5 -201 t-46.5 -248.5zM473 717q0 81 28 157t82 135t132.5 94.5t179.5 35.5q42 0 78.5 -8.5t68 -22t57.5 -30.5t47 -35q48 -42 83 -95l-94 -63q-26 39 -61 70q-30 26 -74 48.5t-101 22.5q-75 0 -132 -26t-95.5 -68.5t-58 -98t-19.5 -114.5t19.5 -114.5t57.5 -98.5t95.5 -68.5 t132.5 -25.5q58 0 102 22t74 48q35 31 60 71l94 -64q-34 -54 -83 -95q-21 -18 -47 -35t-57.5 -30.5t-68 -21.5t-78.5 -8q-101 0 -179.5 35t-132.5 93.5t-82 133.5t-28 156z" />
<glyph unicode="&#xaa;" horiz-adv-x="870" d="M150 541l18 96h539l-19 -96h-538zM233 952q0 60 24.5 102.5t63 70.5t87 44t96 23.5t89.5 9.5t69 2h36l4 20q2 8 3.5 17t1.5 16q0 51 -30 79t-89 28q-35 0 -69 -9t-60 -20q-31 -12 -58 -28l-39 84q31 19 69 34q32 13 76 24t97 11q106 0 160.5 -47t54.5 -143 q0 -16 -3.5 -42.5t-8.5 -47.5l-76 -385h-108l20 100h-4q-24 -32 -56 -57q-27 -21 -66.5 -38.5t-90.5 -17.5q-33 0 -67.5 10t-62 31t-45.5 53t-18 76zM352 965q0 -35 26.5 -59.5t80.5 -24.5q41 0 78.5 23t67 56t49 70t24.5 66l4 18h-27q-22 0 -52.5 -1t-64 -5.5t-67 -13.5 t-60 -25.5t-43 -42t-16.5 -61.5z" />
<glyph unicode="&#xab;" horiz-adv-x="1063" d="M90 582l393 417h160l-407 -428l258 -413h-140zM451 582l421 417h162l-440 -428l260 -413h-141z" />
<glyph unicode="&#xac;" horiz-adv-x="1307" d="M166 700v119h954v-495h-125v376h-829z" />
<glyph unicode="&#xad;" horiz-adv-x="885" d="M20 518l23 127h582l-25 -127h-580z" />
<glyph unicode="&#xae;" horiz-adv-x="1722" d="M152 721q0 103 26 198.5t72.5 178t112.5 150t146.5 115.5t172.5 74.5t192 26.5q102 0 196 -26.5t175.5 -74.5t148.5 -115.5t114.5 -150t73.5 -178t26 -198.5q0 -105 -26 -200.5t-73.5 -178.5t-114.5 -150.5t-148.5 -116t-175.5 -74.5t-196 -26q-100 0 -192 26 t-172.5 74.5t-146.5 116t-112.5 150.5t-72.5 179t-26 200zM272 721q0 -135 46.5 -251t127.5 -201.5t191 -134t237 -48.5q131 0 243.5 48.5t195 134t129.5 201.5t47 251q0 133 -47 248.5t-129.5 201t-195 134.5t-243.5 49q-127 0 -237 -49t-191 -134.5t-127.5 -201 t-46.5 -248.5zM633 322v798h285q53 0 97 -17t75.5 -48t49 -74.5t17.5 -97.5q0 -45 -13 -81t-34 -62.5t-48 -43.5t-54 -24v-4q2 -4 6 -10q3 -5 8 -13.5t12 -21.5l154 -301h-127l-160 323h-153v-323h-115zM748 735h149q65 0 103 39.5t38 108.5q0 68 -38 104.5t-103 36.5h-149 v-289z" />
<glyph unicode="&#xaf;" horiz-adv-x="1032" d="M147 1608l21 112h506l-21 -112h-506z" />
<glyph unicode="&#xb0;" horiz-adv-x="778" d="M205 1141q0 63 28 121t74 102.5t105.5 71t122.5 26.5q56 0 102.5 -19t80 -52t52 -78.5t18.5 -98.5q0 -64 -28.5 -122t-74.5 -102.5t-105.5 -70.5t-120.5 -26q-57 0 -104 18.5t-80 51.5t-51.5 78.5t-18.5 99.5zM326 1145q0 -29 10 -54t28.5 -43.5t44.5 -29t58 -10.5 q38 0 74.5 16.5t64.5 44t45 64t17 77.5q0 29 -10.5 54.5t-29 44t-44 29t-56.5 10.5q-39 0 -75.5 -17t-64.5 -45t-45 -64.5t-17 -76.5z" />
<glyph unicode="&#xb1;" horiz-adv-x="1438" d="M158 522v119h473v522h125v-522h471v-119h-471v-522h-125v522h-473zM195 -213h995v-119h-995v119z" />
<glyph unicode="&#xb2;" horiz-adv-x="782" d="M0 866q2 76 27.5 135.5t65.5 106t91 83.5t104 69t103.5 62.5t90 63.5t63.5 71.5t24 88.5q0 27 -10 50t-28.5 40.5t-44.5 27t-58 9.5q-42 0 -78 -15.5t-64 -34.5q-33 -22 -61 -50l-65 78q35 35 78 63q37 24 86.5 44t109.5 20t107 -16.5t79 -46t49 -71t17 -90.5 q0 -81 -35.5 -139t-90.5 -103t-121 -82t-126.5 -75t-107.5 -82t-64 -104h449l-21 -103h-569z" />
<glyph unicode="&#xb3;" horiz-adv-x="782" d="M16 981l78 72q23 -29 56 -51q28 -19 68.5 -34.5t94.5 -15.5q42 0 81 16t70 44.5t49.5 67.5t18.5 85q0 34 -14.5 60.5t-38.5 44.5t-55 27.5t-64 9.5h-67l-19 63l248 236q10 9 21 17.5t20 16.5q11 9 21 17v4q-12 -2 -24 -3q-11 -2 -24.5 -2.5t-27.5 -0.5h-311l18 102h539 l-15 -74l-299 -284q30 -4 66.5 -18t68 -41.5t53 -69.5t21.5 -101q0 -62 -25.5 -120t-71 -103t-107.5 -72.5t-134 -27.5t-126.5 20.5t-92.5 46.5q-44 30 -76 68z" />
<glyph unicode="&#xb4;" horiz-adv-x="1032" d="M223 1540l191 244h172l-228 -244h-135z" />
<glyph unicode="&#xb5;" horiz-adv-x="1245" d="M-16 -410l278 1440h139l-118 -612q-17 -82 -17 -142q0 -37 8.5 -68t29.5 -53.5t56.5 -35.5t88.5 -13q87 0 164.5 39t139 103t104 144.5t58.5 164.5l91 473h139l-199 -1030h-137l29 147q4 18 8.5 35t8.5 31q4 16 9 31h-4q-21 -39 -61.5 -85.5t-97.5 -87.5t-130.5 -68.5 t-160.5 -27.5q-66 0 -122.5 20t-90.5 68h-4q-3 -30 -6 -59q-3 -25 -6 -52t-7 -46l-63 -316h-127z" />
<glyph unicode="&#xb6;" horiz-adv-x="1174" d="M160 903q0 73 22 141.5t61.5 128t93 109t116 84.5t131.5 54.5t139 19.5h512l-23 -127h-370l-275 -1415h-118l114 596q-79 0 -152 30.5t-128.5 85t-89 129.5t-33.5 164zM694 -102l250 1292h117l-250 -1292h-117z" />
<glyph unicode="&#xb7;" horiz-adv-x="559" d="M174 504l33 170h164l-31 -170h-166z" />
<glyph unicode="&#xb8;" horiz-adv-x="1032" d="M201 -408l20 95q10 -3 23 -6q25 -5 59 -5q19 0 40 3.5t38.5 12.5t29 24.5t11.5 39.5q0 28 -27.5 44t-77.5 16q-5 0 -10 -0.5t-10 -0.5q-5 -1 -10 -1l98 227l78 -14l-2 -17l-47 -123q22 -4 43.5 -14t38 -26.5t26.5 -39.5t10 -53q0 -47 -20.5 -80t-53 -54t-71.5 -30.5 t-76 -9.5q-26 0 -46 2t-34 4q-17 3 -30 6z" />
<glyph unicode="&#xb9;" horiz-adv-x="782" d="M53 866l21 103h192l113 583q2 10 4.5 19t4.5 16l5 15h-4q-4 -6 -10 -13q-5 -6 -15 -15.5t-24 -21.5l-96 -77l-60 81l244 201h107l-154 -788h188l-18 -103h-498z" />
<glyph unicode="&#xba;" horiz-adv-x="967" d="M160 541l18 96h621l-19 -96h-620zM233 1067q0 81 34 153t89.5 126t126.5 85t146 31q65 0 119.5 -21t94 -58.5t61.5 -89t22 -111.5q0 -84 -34 -156.5t-90 -126.5t-127.5 -84.5t-146.5 -30.5q-65 0 -119.5 21t-93.5 58.5t-60.5 89.5t-21.5 114zM346 1075q0 -42 13.5 -76.5 t38 -58.5t59 -37.5t75.5 -13.5q52 0 102.5 22t90.5 60t64 90.5t24 114.5q0 40 -14 74t-39 58.5t-59.5 38t-75.5 13.5q-53 0 -103.5 -22t-89.5 -60.5t-62.5 -90.5t-23.5 -112z" />
<glyph unicode="&#xbb;" horiz-adv-x="1063" d="M16 158l439 428l-260 413h141l264 -424l-422 -417h-162zM406 158l409 428l-260 413h141l265 -424l-394 -417h-161z" />
<glyph unicode="&#xbc;" horiz-adv-x="1933" d="M112 550l21 103h192l113 583q2 10 4.5 19t4.5 16l5 15h-4q-4 -6 -10 -13q-5 -6 -15 -15.5t-24 -21.5l-96 -77l-60 81l244 201h107l-154 -788h188l-18 -103h-498zM405 0l967 1440h127l-965 -1440h-129zM1069 235l14 78l545 579h119l-109 -555h134l-19 -102h-133l-47 -234 h-113l45 234h-436zM1235 337h291l53 279q4 21 10 43t11 41t9 31t3 12h-4q-13 -16 -27 -34q-12 -15 -27.5 -32.5t-31.5 -34.5l-287 -301v-4z" />
<glyph unicode="&#xbd;" horiz-adv-x="1907" d="M112 550l21 103h192l113 583q2 10 4.5 19t4.5 16l5 15h-4q-4 -6 -10 -13q-5 -6 -15 -15.5t-24 -21.5l-96 -77l-60 81l244 201h107l-154 -788h188l-18 -103h-498zM407 0l967 1440h127l-965 -1440h-129zM1090 1q2 76 27.5 135.5t65.5 106t91 83.5t104 69t103.5 62.5 t90 63.5t63.5 71.5t24 88.5q0 27 -10 50t-28.5 40.5t-44.5 27t-58 9.5q-42 0 -78 -15.5t-64 -34.5q-33 -22 -61 -50l-65 78q35 35 78 63q37 24 86.5 44t109.5 20t107 -16.5t79 -46t49 -71t17 -90.5q0 -81 -35.5 -139t-90.5 -103t-121 -82t-126.5 -75t-107.5 -82t-64 -104 h449l-21 -103h-569z" />
<glyph unicode="&#xbe;" horiz-adv-x="1960" d="M98 665l78 72q23 -29 56 -51q28 -19 68.5 -34.5t94.5 -15.5q42 0 81 16t70 44.5t49.5 67.5t18.5 85q0 34 -14.5 60.5t-38.5 44.5t-55 27.5t-64 9.5h-67l-19 63l248 236q10 9 21 17.5t20 16.5q11 9 21 17v4q-12 -2 -24 -3q-11 -2 -24.5 -2.5t-27.5 -0.5h-311l18 102h539 l-15 -74l-299 -284q30 -4 66.5 -18t68 -41.5t53 -69.5t21.5 -101q0 -62 -25.5 -120t-71 -103t-107.5 -72.5t-134 -27.5t-126.5 20.5t-92.5 46.5q-44 30 -76 68zM432 0l967 1440h127l-965 -1440h-129zM1096 235l14 78l545 579h119l-109 -555h134l-19 -102h-133l-47 -234h-113 l45 234h-436zM1262 337h291l53 279q4 21 10 43t11 41t9 31t3 12h-4q-13 -16 -27 -34q-12 -15 -27.5 -32.5t-31.5 -34.5l-287 -301v-4z" />
<glyph unicode="&#xbf;" horiz-adv-x="899" d="M-43 -119q0 91 32.5 159t82.5 122t110 99.5t115 91.5t97.5 98.5t56.5 119.5l18 82h137l-18 -88q-18 -85 -60.5 -148t-96.5 -114t-111 -94.5t-105 -89.5t-78.5 -99.5t-30.5 -123.5q0 -42 15.5 -77t44 -61t70 -40.5t94.5 -14.5q54 0 102.5 13t84.5 30q42 18 79 43l59 -113 q-45 -30 -99 -53q-46 -20 -108 -36.5t-133 -16.5q-81 0 -147 22t-113 63t-72.5 98t-25.5 128zM496 868l32 162h160l-33 -162h-159z" />
<glyph unicode="&#xc0;" d="M-88 0l803 1440h155l248 -1440h-143l-76 459h-580l-253 -459h-154zM383 582h496l-86 522q-5 25 -9 57t-7 61q-4 33 -7 68h-4q-15 -35 -31 -68q-14 -29 -29.5 -61t-29.5 -57zM623 1784h151l96 -244h-118z" />
<glyph unicode="&#xc1;" d="M-88 0l803 1440h155l248 -1440h-143l-76 459h-580l-253 -459h-154zM383 582h496l-86 522q-5 25 -9 57t-7 61q-4 33 -7 68h-4q-15 -35 -31 -68q-14 -29 -29.5 -61t-29.5 -57zM741 1540l191 244h172l-228 -244h-135z" />
<glyph unicode="&#xc2;" d="M-88 0l803 1440h155l248 -1440h-143l-76 459h-580l-253 -459h-154zM383 582h496l-86 522q-5 25 -9 57t-7 61q-4 33 -7 68h-4q-15 -35 -31 -68q-14 -29 -29.5 -61t-29.5 -57zM559 1540l219 244h154l123 -244h-129l-78 166h-4l-144 -166h-141z" />
<glyph unicode="&#xc3;" d="M-88 0l803 1440h155l248 -1440h-143l-76 459h-580l-253 -459h-154zM383 582h496l-86 522q-5 25 -9 57t-7 61q-4 33 -7 68h-4q-15 -35 -31 -68q-14 -29 -29.5 -61t-29.5 -57zM510 1546q21 118 74 179t143 61q33 0 56.5 -11t41 -27.5t31.5 -35.5t28.5 -35.5t30.5 -27.5 t37 -11q25 0 43.5 14.5t30.5 36t19.5 46.5t11.5 45h110q-23 -119 -74.5 -179.5t-144.5 -60.5q-32 0 -55.5 11t-41 27t-32 35t-28.5 35t-30.5 27t-37.5 11q-23 0 -40.5 -14.5t-30 -35.5t-20.5 -45.5t-12 -44.5h-110z" />
<glyph unicode="&#xc4;" d="M-88 0l803 1440h155l248 -1440h-143l-76 459h-580l-253 -459h-154zM383 582h496l-86 522q-5 25 -9 57t-7 61q-4 33 -7 68h-4q-15 -35 -31 -68q-14 -29 -29.5 -61t-29.5 -57zM610 1608l35 176h125l-33 -176h-127zM919 1608l35 176h127l-35 -176h-127z" />
<glyph unicode="&#xc5;" d="M-88 0l803 1440h155l248 -1440h-143l-76 459h-580l-253 -459h-154zM383 582h496l-86 522q-5 25 -9 57t-7 61q-4 33 -7 68h-4q-15 -35 -31 -68q-14 -29 -29.5 -61t-29.5 -57zM680 1645q0 34 14.5 64t38.5 52t55 34.5t64 12.5q65 0 103 -33.5t38 -95.5q0 -34 -15 -63.5 t-39 -51t-55 -34t-63 -12.5q-65 0 -103 33.5t-38 93.5zM768 1647q0 -23 14.5 -37.5t40.5 -14.5q17 0 32 6.5t26 18t17.5 26.5t6.5 33q0 23 -15 38.5t-40 15.5q-16 0 -31 -6.5t-26 -18t-18 -27.5t-7 -34z" />
<glyph unicode="&#xc6;" horiz-adv-x="1755" d="M-92 0l870 1440h996l-25 -127h-670l-102 -525h547l-25 -126h-547l-104 -535h706l-24 -127h-848l129 664h-346l-397 -664h-160zM539 786h295l104 527h-82z" />
<glyph unicode="&#xc7;" horiz-adv-x="1493" d="M125 594q0 119 32.5 230t90.5 207.5t137.5 176.5t174.5 136.5t201.5 88t217.5 31.5q66 0 123.5 -8t105.5 -21t87.5 -30t70.5 -34q73 -41 121 -93l-90 -100q-44 43 -105 76q-26 14 -58.5 28t-71 25t-83.5 17.5t-96 6.5q-95 0 -185 -26.5t-169 -75t-144.5 -116t-113 -149 t-73.5 -174.5t-26 -192q0 -105 33 -195t95 -155t150.5 -102t199.5 -37q54 0 104.5 8t96 21.5t85.5 30.5t74 35q78 41 143 95l70 -111q-72 -60 -162 -107q-38 -20 -84 -39t-98.5 -34t-111.5 -24t-122 -9h-4l-32 -88q22 -4 43.5 -14t38 -26.5t26.5 -39.5t10 -53 q0 -47 -20.5 -80t-53 -54t-71.5 -30.5t-76 -9.5q-26 0 -46 2t-34 4q-17 3 -30 6l20 95q10 -3 23 -6q25 -5 59 -5q19 0 40 3.5t38.5 12.5t29 24.5t11.5 39.5q0 28 -27.5 44t-77.5 16q-5 0 -10 -0.5t-10 -0.5q-5 -1 -10 -1l71 168q-124 13 -222 64t-166 131.5t-104 186.5 t-36 230z" />
<glyph unicode="&#xc8;" horiz-adv-x="1163" d="M90 0l281 1440h811l-27 -127h-668l-102 -525h547l-25 -126h-545l-106 -535h705l-23 -127h-848zM627 1784h151l96 -244h-118z" />
<glyph unicode="&#xc9;" horiz-adv-x="1163" d="M90 0l281 1440h811l-27 -127h-668l-102 -525h547l-25 -126h-545l-106 -535h705l-23 -127h-848zM747 1540l191 244h172l-228 -244h-135z" />
<glyph unicode="&#xca;" horiz-adv-x="1163" d="M90 0l281 1440h811l-27 -127h-668l-102 -525h547l-25 -126h-545l-106 -535h705l-23 -127h-848zM565 1540l219 244h154l123 -244h-129l-78 166h-4l-144 -166h-141z" />
<glyph unicode="&#xcb;" horiz-adv-x="1163" d="M90 0l281 1440h811l-27 -127h-668l-102 -525h547l-25 -126h-545l-106 -535h705l-23 -127h-848zM616 1608l35 176h125l-33 -176h-127zM925 1608l35 176h127l-35 -176h-127z" />
<glyph unicode="&#xcc;" horiz-adv-x="559" d="M90 0l281 1440h141l-281 -1440h-141zM274 1784h151l96 -244h-118z" />
<glyph unicode="&#xcd;" horiz-adv-x="559" d="M90 0l281 1440h141l-281 -1440h-141zM389 1540l191 244h172l-228 -244h-135z" />
<glyph unicode="&#xce;" horiz-adv-x="559" d="M90 0l281 1440h141l-281 -1440h-141zM209 1540l219 244h154l123 -244h-129l-78 166h-4l-144 -166h-141z" />
<glyph unicode="&#xcf;" horiz-adv-x="559" d="M90 0l281 1440h141l-281 -1440h-141zM260 1608l35 176h125l-33 -176h-127zM569 1608l35 176h127l-35 -176h-127z" />
<glyph unicode="&#xd0;" horiz-adv-x="1540" d="M117 0l129 662h-121l25 122h120l129 656h437q145 0 260.5 -37t196.5 -108.5t124 -175.5t43 -238q0 -121 -28.5 -233.5t-81 -210t-128.5 -178.5t-170.5 -138.5t-207 -89t-238.5 -31.5h-489zM283 127h309q156 0 288 57t228.5 157.5t150.5 236.5t54 294q0 107 -34 189 t-97.5 138t-154 85t-204.5 29h-307l-104 -529h344l-25 -122h-344z" />
<glyph unicode="&#xd1;" horiz-adv-x="1530" d="M90 0l281 1440h127l532 -1037q14 -27 28.5 -60.5t25.5 -63.5l26 -70h4q3 35 7 69q3 29 7.5 62.5t10.5 62.5l202 1037h142l-281 -1440h-127l-532 1036q-14 27 -28.5 60.5t-26.5 63.5q-14 35 -27 71h-4q-3 -35 -7 -69q-4 -29 -8.5 -63t-9.5 -63l-201 -1036h-141zM641 1546 q21 118 74 179t143 61q33 0 56.5 -11t41 -27.5t31.5 -35.5t28.5 -35.5t30.5 -27.5t37 -11q25 0 43.5 14.5t30.5 36t19.5 46.5t11.5 45h110q-23 -119 -74.5 -179.5t-144.5 -60.5q-32 0 -55.5 11t-41 27t-32 35t-28.5 35t-30.5 27t-37.5 11q-23 0 -40.5 -14.5t-30 -35.5 t-20.5 -45.5t-12 -44.5h-110z" />
<glyph unicode="&#xd2;" horiz-adv-x="1683" d="M119 598q0 117 33.5 227t93 206t141 176t177.5 137t203 88.5t216 31.5q140 0 255.5 -45t198 -126t128 -192t45.5 -243q0 -119 -34 -231t-94 -210t-142 -179.5t-178 -139.5t-203 -90.5t-216 -32.5q-140 0 -254.5 46.5t-197 129.5t-127.5 197t-45 250zM264 602 q0 -108 35 -199t99 -156t152 -101.5t195 -36.5q89 0 176.5 26.5t167 75.5t148 116.5t118.5 150.5t78.5 177.5t28.5 196.5q0 105 -35 193t-98.5 151.5t-152 99t-195.5 35.5q-90 0 -178 -26t-168 -73.5t-147.5 -114t-117.5 -147.5t-78 -174.5t-28 -193.5zM828 1784h151 l96 -244h-118z" />
<glyph unicode="&#xd3;" horiz-adv-x="1683" d="M119 598q0 117 33.5 227t93 206t141 176t177.5 137t203 88.5t216 31.5q140 0 255.5 -45t198 -126t128 -192t45.5 -243q0 -119 -34 -231t-94 -210t-142 -179.5t-178 -139.5t-203 -90.5t-216 -32.5q-140 0 -254.5 46.5t-197 129.5t-127.5 197t-45 250zM264 602 q0 -108 35 -199t99 -156t152 -101.5t195 -36.5q89 0 176.5 26.5t167 75.5t148 116.5t118.5 150.5t78.5 177.5t28.5 196.5q0 105 -35 193t-98.5 151.5t-152 99t-195.5 35.5q-90 0 -178 -26t-168 -73.5t-147.5 -114t-117.5 -147.5t-78 -174.5t-28 -193.5zM946 1540l191 244 h172l-228 -244h-135z" />
<glyph unicode="&#xd4;" horiz-adv-x="1683" d="M119 598q0 117 33.5 227t93 206t141 176t177.5 137t203 88.5t216 31.5q140 0 255.5 -45t198 -126t128 -192t45.5 -243q0 -119 -34 -231t-94 -210t-142 -179.5t-178 -139.5t-203 -90.5t-216 -32.5q-140 0 -254.5 46.5t-197 129.5t-127.5 197t-45 250zM264 602 q0 -108 35 -199t99 -156t152 -101.5t195 -36.5q89 0 176.5 26.5t167 75.5t148 116.5t118.5 150.5t78.5 177.5t28.5 196.5q0 105 -35 193t-98.5 151.5t-152 99t-195.5 35.5q-90 0 -178 -26t-168 -73.5t-147.5 -114t-117.5 -147.5t-78 -174.5t-28 -193.5zM764 1540l219 244 h154l123 -244h-129l-78 166h-4l-144 -166h-141z" />
<glyph unicode="&#xd5;" horiz-adv-x="1683" d="M119 598q0 117 33.5 227t93 206t141 176t177.5 137t203 88.5t216 31.5q140 0 255.5 -45t198 -126t128 -192t45.5 -243q0 -119 -34 -231t-94 -210t-142 -179.5t-178 -139.5t-203 -90.5t-216 -32.5q-140 0 -254.5 46.5t-197 129.5t-127.5 197t-45 250zM264 602 q0 -108 35 -199t99 -156t152 -101.5t195 -36.5q89 0 176.5 26.5t167 75.5t148 116.5t118.5 150.5t78.5 177.5t28.5 196.5q0 105 -35 193t-98.5 151.5t-152 99t-195.5 35.5q-90 0 -178 -26t-168 -73.5t-147.5 -114t-117.5 -147.5t-78 -174.5t-28 -193.5zM715 1546 q21 118 74 179t143 61q33 0 56.5 -11t41 -27.5t31.5 -35.5t28.5 -35.5t30.5 -27.5t37 -11q25 0 43.5 14.5t30.5 36t19.5 46.5t11.5 45h110q-23 -119 -74.5 -179.5t-144.5 -60.5q-32 0 -55.5 11t-41 27t-32 35t-28.5 35t-30.5 27t-37.5 11q-23 0 -40.5 -14.5t-30 -35.5 t-20.5 -45.5t-12 -44.5h-110z" />
<glyph unicode="&#xd6;" horiz-adv-x="1683" d="M119 598q0 117 33.5 227t93 206t141 176t177.5 137t203 88.5t216 31.5q140 0 255.5 -45t198 -126t128 -192t45.5 -243q0 -119 -34 -231t-94 -210t-142 -179.5t-178 -139.5t-203 -90.5t-216 -32.5q-140 0 -254.5 46.5t-197 129.5t-127.5 197t-45 250zM264 602 q0 -108 35 -199t99 -156t152 -101.5t195 -36.5q89 0 176.5 26.5t167 75.5t148 116.5t118.5 150.5t78.5 177.5t28.5 196.5q0 105 -35 193t-98.5 151.5t-152 99t-195.5 35.5q-90 0 -178 -26t-168 -73.5t-147.5 -114t-117.5 -147.5t-78 -174.5t-28 -193.5zM815 1608l35 176h125 l-33 -176h-127zM1124 1608l35 176h127l-35 -176h-127z" />
<glyph unicode="&#xd7;" horiz-adv-x="1421" d="M184 84l443 498l-443 497l84 84l439 -493l438 493l84 -84l-445 -497l445 -498l-84 -84l-438 494l-439 -494z" />
<glyph unicode="&#xd8;" horiz-adv-x="1690" d="M121 598q0 117 33.5 227t93 206t141.5 176t178 137t203 88.5t217 31.5q113 0 209.5 -29.5t173.5 -84.5l129 141l78 -66l-129 -141q78 -80 121 -188t43 -238q0 -119 -33.5 -231t-93.5 -210t-141.5 -179.5t-177.5 -139.5t-202.5 -90.5t-215.5 -32.5q-116 0 -214.5 31 t-177.5 88l-131 -143l-80 63l136 148q-78 83 -119 193t-41 243zM268 602q0 -100 29.5 -183.5t83.5 -148.5l893 975q-59 42 -131.5 64t-157.5 22q-91 0 -179 -26t-167.5 -73.5t-147.5 -114t-117.5 -147.5t-77.5 -174.5t-28 -193.5zM453 201q60 -45 134 -68.5t161 -23.5 q89 0 176.5 26.5t167 75.5t148 116.5t118 150.5t78 177.5t28.5 196.5q0 97 -30 180t-84 146z" />
<glyph unicode="&#xd9;" horiz-adv-x="1477" d="M156 393q0 55 12 117l182 930h142l-183 -934q-6 -29 -8 -52t-2 -44q0 -72 23 -128t67 -94.5t107.5 -58.5t144.5 -20q92 0 172.5 27t144 79t107 126t61.5 169l183 930h143l-188 -948q-24 -120 -79 -216t-136 -162.5t-185 -102.5t-225 -36q-108 0 -197 28t-152.5 82 t-98.5 131.5t-35 176.5zM727 1784h151l96 -244h-118z" />
<glyph unicode="&#xda;" horiz-adv-x="1477" d="M156 393q0 55 12 117l182 930h142l-183 -934q-6 -29 -8 -52t-2 -44q0 -72 23 -128t67 -94.5t107.5 -58.5t144.5 -20q92 0 172.5 27t144 79t107 126t61.5 169l183 930h143l-188 -948q-24 -120 -79 -216t-136 -162.5t-185 -102.5t-225 -36q-108 0 -197 28t-152.5 82 t-98.5 131.5t-35 176.5zM846 1540l191 244h172l-228 -244h-135z" />
<glyph unicode="&#xdb;" horiz-adv-x="1477" d="M156 393q0 55 12 117l182 930h142l-183 -934q-6 -29 -8 -52t-2 -44q0 -72 23 -128t67 -94.5t107.5 -58.5t144.5 -20q92 0 172.5 27t144 79t107 126t61.5 169l183 930h143l-188 -948q-24 -120 -79 -216t-136 -162.5t-185 -102.5t-225 -36q-108 0 -197 28t-152.5 82 t-98.5 131.5t-35 176.5zM664 1540l219 244h154l123 -244h-129l-78 166h-4l-144 -166h-141z" />
<glyph unicode="&#xdc;" horiz-adv-x="1477" d="M156 393q0 55 12 117l182 930h142l-183 -934q-6 -29 -8 -52t-2 -44q0 -72 23 -128t67 -94.5t107.5 -58.5t144.5 -20q92 0 172.5 27t144 79t107 126t61.5 169l183 930h143l-188 -948q-24 -120 -79 -216t-136 -162.5t-185 -102.5t-225 -36q-108 0 -197 28t-152.5 82 t-98.5 131.5t-35 176.5zM715 1608l35 176h125l-33 -176h-127zM1024 1608l35 176h127l-35 -176h-127z" />
<glyph unicode="&#xdd;" horiz-adv-x="1155" d="M176 1440h152l202 -522q11 -29 21.5 -59t18.5 -56q10 -30 18 -58h4q18 28 37 57q17 25 38 54.5t44 58.5l405 525h172l-649 -826l-121 -614h-141l123 618zM676 1540l191 244h172l-228 -244h-135z" />
<glyph unicode="&#xde;" horiz-adv-x="1231" d="M90 0l283 1440h141l-51 -256h332q66 0 123.5 -11.5t103.5 -37.5q80 -44 124 -122t44 -182q0 -84 -23 -159t-64.5 -137t-97.5 -109.5t-122 -75.5q-50 -21 -103.5 -31t-107.5 -10h-377l-62 -309h-143zM317 436h340q45 0 87.5 8t80.5 25q48 21 87.5 54.5t68.5 78.5t45 101 t16 122q0 110 -69.5 171t-194.5 61h-340z" />
<glyph unicode="&#xdf;" horiz-adv-x="1176" d="M51 0l213 1104q17 87 63 154.5t109 113t137.5 69t147.5 23.5q79 0 141 -21t104.5 -57t64.5 -85t22 -105q0 -62 -23.5 -109t-58 -85.5t-75.5 -70t-75.5 -61.5t-58 -61t-23.5 -68q0 -33 23.5 -62.5t58 -59t75.5 -61t75.5 -68.5t58 -81.5t23.5 -99.5q0 -68 -30.5 -126.5 t-81.5 -102.5t-118 -69t-139 -25q-75 0 -132.5 10t-98.5 22q-48 14 -84 33l26 129q34 -20 77 -35q37 -13 88.5 -23.5t115.5 -10.5q38 0 79.5 11.5t75.5 35.5t56 61t22 88q0 43 -23.5 78.5t-58.5 68t-75.5 63t-75.5 63.5t-58.5 70t-23.5 83q0 52 23 93t58 76.5t75.5 67.5 t75.5 65.5t58 69.5t23 81q0 28 -11 55.5t-34.5 48.5t-59 34t-83.5 13q-51 0 -102 -16.5t-95 -49.5t-76.5 -81.5t-44.5 -112.5l-211 -1077h-139z" />
<glyph unicode="&#xe0;" horiz-adv-x="1067" d="M16 236q0 83 31.5 145t85 107t124 73.5t147.5 45.5t156.5 23.5t150.5 6.5h65q9 42 12 66t3 42q0 39 -11 72.5t-35.5 58.5t-65 39.5t-99.5 14.5q-64 0 -120.5 -15.5t-99.5 -34.5q-50 -22 -92 -49l-45 117q47 29 104 53q49 20 116.5 37t148.5 17q77 0 139.5 -17t107 -53 t69 -91.5t24.5 -131.5q0 -52 -12 -113l-127 -649h-134l25 119q4 19 7.5 35t7.5 28q4 14 8 25h-5q1 0 -9 -17t-31 -43t-53 -56t-74 -56t-94.5 -43t-114.5 -17t-118.5 17.5t-99 51t-67.5 82t-25 110.5zM160 254q0 -32 11.5 -60.5t36 -51t62 -35.5t88.5 -13q72 0 136.5 36 t116.5 92t88 125.5t51 137.5l8 37h-60q-43 0 -99.5 -2.5t-116.5 -11.5t-117.5 -26.5t-103 -47t-73.5 -73.5t-28 -107zM449 1441h151l96 -244h-118z" />
<glyph unicode="&#xe1;" horiz-adv-x="1067" d="M16 236q0 83 31.5 145t85 107t124 73.5t147.5 45.5t156.5 23.5t150.5 6.5h65q9 42 12 66t3 42q0 39 -11 72.5t-35.5 58.5t-65 39.5t-99.5 14.5q-64 0 -120.5 -15.5t-99.5 -34.5q-50 -22 -92 -49l-45 117q47 29 104 53q49 20 116.5 37t148.5 17q77 0 139.5 -17t107 -53 t69 -91.5t24.5 -131.5q0 -52 -12 -113l-127 -649h-134l25 119q4 19 7.5 35t7.5 28q4 14 8 25h-5q1 0 -9 -17t-31 -43t-53 -56t-74 -56t-94.5 -43t-114.5 -17t-118.5 17.5t-99 51t-67.5 82t-25 110.5zM160 254q0 -32 11.5 -60.5t36 -51t62 -35.5t88.5 -13q72 0 136.5 36 t116.5 92t88 125.5t51 137.5l8 37h-60q-43 0 -99.5 -2.5t-116.5 -11.5t-117.5 -26.5t-103 -47t-73.5 -73.5t-28 -107zM569 1197l191 244h172l-228 -244h-135z" />
<glyph unicode="&#xe2;" horiz-adv-x="1067" d="M16 236q0 83 31.5 145t85 107t124 73.5t147.5 45.5t156.5 23.5t150.5 6.5h65q9 42 12 66t3 42q0 39 -11 72.5t-35.5 58.5t-65 39.5t-99.5 14.5q-64 0 -120.5 -15.5t-99.5 -34.5q-50 -22 -92 -49l-45 117q47 29 104 53q49 20 116.5 37t148.5 17q77 0 139.5 -17t107 -53 t69 -91.5t24.5 -131.5q0 -52 -12 -113l-127 -649h-134l25 119q4 19 7.5 35t7.5 28q4 14 8 25h-5q1 0 -9 -17t-31 -43t-53 -56t-74 -56t-94.5 -43t-114.5 -17t-118.5 17.5t-99 51t-67.5 82t-25 110.5zM160 254q0 -32 11.5 -60.5t36 -51t62 -35.5t88.5 -13q72 0 136.5 36 t116.5 92t88 125.5t51 137.5l8 37h-60q-43 0 -99.5 -2.5t-116.5 -11.5t-117.5 -26.5t-103 -47t-73.5 -73.5t-28 -107zM385 1197l219 244h154l123 -244h-129l-78 166h-4l-144 -166h-141z" />
<glyph unicode="&#xe3;" horiz-adv-x="1067" d="M16 236q0 83 31.5 145t85 107t124 73.5t147.5 45.5t156.5 23.5t150.5 6.5h65q9 42 12 66t3 42q0 39 -11 72.5t-35.5 58.5t-65 39.5t-99.5 14.5q-64 0 -120.5 -15.5t-99.5 -34.5q-50 -22 -92 -49l-45 117q47 29 104 53q49 20 116.5 37t148.5 17q77 0 139.5 -17t107 -53 t69 -91.5t24.5 -131.5q0 -52 -12 -113l-127 -649h-134l25 119q4 19 7.5 35t7.5 28q4 14 8 25h-5q1 0 -9 -17t-31 -43t-53 -56t-74 -56t-94.5 -43t-114.5 -17t-118.5 17.5t-99 51t-67.5 82t-25 110.5zM160 254q0 -32 11.5 -60.5t36 -51t62 -35.5t88.5 -13q72 0 136.5 36 t116.5 92t88 125.5t51 137.5l8 37h-60q-43 0 -99.5 -2.5t-116.5 -11.5t-117.5 -26.5t-103 -47t-73.5 -73.5t-28 -107zM336 1203q21 118 74 179t143 61q33 0 56.5 -11t41 -27.5t31.5 -35.5t28.5 -35.5t30.5 -27.5t37 -11q25 0 43.5 14.5t30.5 36t19.5 46.5t11.5 45h110 q-23 -119 -74.5 -179.5t-144.5 -60.5q-32 0 -55.5 11t-41 27t-32 35t-28.5 35t-30.5 27t-37.5 11q-23 0 -40.5 -14.5t-30 -35.5t-20.5 -45.5t-12 -44.5h-110z" />
<glyph unicode="&#xe4;" horiz-adv-x="1067" d="M16 236q0 83 31.5 145t85 107t124 73.5t147.5 45.5t156.5 23.5t150.5 6.5h65q9 42 12 66t3 42q0 39 -11 72.5t-35.5 58.5t-65 39.5t-99.5 14.5q-64 0 -120.5 -15.5t-99.5 -34.5q-50 -22 -92 -49l-45 117q47 29 104 53q49 20 116.5 37t148.5 17q77 0 139.5 -17t107 -53 t69 -91.5t24.5 -131.5q0 -52 -12 -113l-127 -649h-134l25 119q4 19 7.5 35t7.5 28q4 14 8 25h-5q1 0 -9 -17t-31 -43t-53 -56t-74 -56t-94.5 -43t-114.5 -17t-118.5 17.5t-99 51t-67.5 82t-25 110.5zM160 254q0 -32 11.5 -60.5t36 -51t62 -35.5t88.5 -13q72 0 136.5 36 t116.5 92t88 125.5t51 137.5l8 37h-60q-43 0 -99.5 -2.5t-116.5 -11.5t-117.5 -26.5t-103 -47t-73.5 -73.5t-28 -107zM436 1265l35 176h125l-33 -176h-127zM745 1265l35 176h127l-35 -176h-127z" />
<glyph unicode="&#xe5;" horiz-adv-x="1067" d="M16 236q0 83 31.5 145t85 107t124 73.5t147.5 45.5t156.5 23.5t150.5 6.5h65q9 42 12 66t3 42q0 39 -11 72.5t-35.5 58.5t-65 39.5t-99.5 14.5q-64 0 -120.5 -15.5t-99.5 -34.5q-50 -22 -92 -49l-45 117q47 29 104 53q49 20 116.5 37t148.5 17q77 0 139.5 -17t107 -53 t69 -91.5t24.5 -131.5q0 -52 -12 -113l-127 -649h-134l25 119q4 19 7.5 35t7.5 28q4 14 8 25h-5q1 0 -9 -17t-31 -43t-53 -56t-74 -56t-94.5 -43t-114.5 -17t-118.5 17.5t-99 51t-67.5 82t-25 110.5zM160 254q0 -32 11.5 -60.5t36 -51t62 -35.5t88.5 -13q72 0 136.5 36 t116.5 92t88 125.5t51 137.5l8 37h-60q-43 0 -99.5 -2.5t-116.5 -11.5t-117.5 -26.5t-103 -47t-73.5 -73.5t-28 -107zM506 1302q0 34 14.5 64t38.5 52t55 34.5t64 12.5q65 0 103 -33.5t38 -95.5q0 -34 -15 -63.5t-39 -51t-55 -34t-63 -12.5q-65 0 -103 33.5t-38 93.5z M594 1304q0 -23 14.5 -37.5t40.5 -14.5q17 0 32 6.5t26 18t17.5 26.5t6.5 33q0 23 -15 38.5t-40 15.5q-16 0 -31 -6.5t-26 -18t-18 -27.5t-7 -34z" />
<glyph unicode="&#xe6;" horiz-adv-x="1782" d="M16 236q0 84 30 146t81.5 105.5t120 71t145 43.5t157 21.5t155.5 5.5h67q9 47 11.5 72.5t2.5 43.5q0 89 -51.5 137t-165.5 48q-59 0 -113 -15.5t-96 -34.5q-49 -22 -92 -49l-45 117q47 29 104 53q49 20 114.5 37t142.5 17q76 0 132 -15t94 -41.5t60.5 -63t30.5 -79.5h4 q81 100 187 149.5t225 49.5q94 0 165 -27t118 -76.5t70.5 -118.5t23.5 -153q0 -27 -5 -56.5t-10 -53.5q-6 -29 -14 -56h-776q-5 -23 -6.5 -44.5t-1.5 -43.5q0 -80 21.5 -141t61.5 -102t98 -62t130 -21q71 0 132 19.5t107 42.5q54 27 99 63l45 -114q-51 -38 -112 -68 q-52 -26 -122 -47t-151 -21q-83 0 -153 20t-124.5 56.5t-91.5 88.5t-55 116h-4q-6 -13 -21 -38.5t-40.5 -57t-61.5 -64.5t-82 -59.5t-103.5 -44t-125.5 -17.5q-64 0 -120.5 17t-99 50t-67.5 81.5t-25 112.5zM160 252q0 -32 12 -61t36 -50.5t61 -34t87 -12.5q74 0 137.5 34.5 t113.5 89.5t85 122.5t51 132.5l11 41h-121q-42 0 -93.5 -3t-104 -12.5t-102 -27.5t-88 -47t-62 -71t-23.5 -101zM918 629h628q2 17 3 33.5t1 33.5q0 63 -18.5 108.5t-50.5 75.5t-75 44t-91 14q-65 0 -125 -20t-111.5 -59.5t-92.5 -97t-68 -132.5z" />
<glyph unicode="&#xe7;" horiz-adv-x="1128" d="M72 414q0 93 24.5 176.5t68 155t103 128.5t130 97.5t149 62t158.5 21.5q98 0 167.5 -23t115.5 -51q53 -33 89 -74l-84 -94q-31 31 -72 57q-36 22 -88.5 40t-121.5 18q-92 0 -181 -37.5t-159 -104.5t-113 -159t-43 -201q0 -74 25 -134t69.5 -103t106 -66t135.5 -23 q79 0 145 22.5t114 50.5q56 32 101 73l43 -117q-50 -44 -112 -77q-54 -29 -128.5 -53t-168.5 -24h-10l-33 -88q22 -4 43.5 -14t38 -26.5t27 -39.5t10.5 -53q0 -47 -21 -80t-53 -54t-71.5 -30.5t-76.5 -9.5q-26 0 -46 2t-34 4q-17 3 -30 6l20 95q10 -3 23 -6q25 -5 59 -5 q19 0 40 3.5t38.5 12.5t29 24.5t11.5 39.5q0 28 -27.5 44t-76.5 16q-6 0 -11 -0.5t-10 -0.5q-5 -1 -10 -1l71 170q-85 13 -154 48.5t-118 91t-75.5 129t-26.5 161.5z" />
<glyph unicode="&#xe8;" horiz-adv-x="1133" d="M70 410q0 84 20.5 164t58 152t91 132t120 104t144 68.5t164.5 24.5q97 0 167.5 -28t117 -78t69 -118t22.5 -149q0 -30 -5 -61t-10 -56q-7 -30 -15 -57h-791q-5 -23 -6.5 -44.5t-1.5 -43.5q0 -66 21 -124.5t62 -102t103 -68.5t144 -25q70 0 131 19.5t107 42.5q54 27 98 63 l45 -114q-50 -38 -111 -68q-52 -26 -122.5 -47t-151.5 -21q-106 0 -193 31.5t-148.5 88.5t-95.5 137t-34 178zM250 623h645q1 11 3 22q1 10 2 22.5t1 26.5q0 61 -17.5 107t-49 76.5t-74 45.5t-92.5 15q-65 0 -127.5 -21t-118 -61t-100 -98.5t-72.5 -134.5zM527 1441h151 l96 -244h-118z" />
<glyph unicode="&#xe9;" horiz-adv-x="1133" d="M70 410q0 84 20.5 164t58 152t91 132t120 104t144 68.5t164.5 24.5q97 0 167.5 -28t117 -78t69 -118t22.5 -149q0 -30 -5 -61t-10 -56q-7 -30 -15 -57h-791q-5 -23 -6.5 -44.5t-1.5 -43.5q0 -66 21 -124.5t62 -102t103 -68.5t144 -25q70 0 131 19.5t107 42.5q54 27 98 63 l45 -114q-50 -38 -111 -68q-52 -26 -122.5 -47t-151.5 -21q-106 0 -193 31.5t-148.5 88.5t-95.5 137t-34 178zM250 623h645q1 11 3 22q1 10 2 22.5t1 26.5q0 61 -17.5 107t-49 76.5t-74 45.5t-92.5 15q-65 0 -127.5 -21t-118 -61t-100 -98.5t-72.5 -134.5zM645 1197l191 244 h172l-228 -244h-135z" />
<glyph unicode="&#xea;" horiz-adv-x="1133" d="M70 410q0 84 20.5 164t58 152t91 132t120 104t144 68.5t164.5 24.5q97 0 167.5 -28t117 -78t69 -118t22.5 -149q0 -30 -5 -61t-10 -56q-7 -30 -15 -57h-791q-5 -23 -6.5 -44.5t-1.5 -43.5q0 -66 21 -124.5t62 -102t103 -68.5t144 -25q70 0 131 19.5t107 42.5q54 27 98 63 l45 -114q-50 -38 -111 -68q-52 -26 -122.5 -47t-151.5 -21q-106 0 -193 31.5t-148.5 88.5t-95.5 137t-34 178zM250 623h645q1 11 3 22q1 10 2 22.5t1 26.5q0 61 -17.5 107t-49 76.5t-74 45.5t-92.5 15q-65 0 -127.5 -21t-118 -61t-100 -98.5t-72.5 -134.5zM463 1197l219 244 h154l123 -244h-129l-78 166h-4l-144 -166h-141z" />
<glyph unicode="&#xeb;" horiz-adv-x="1133" d="M70 410q0 84 20.5 164t58 152t91 132t120 104t144 68.5t164.5 24.5q97 0 167.5 -28t117 -78t69 -118t22.5 -149q0 -30 -5 -61t-10 -56q-7 -30 -15 -57h-791q-5 -23 -6.5 -44.5t-1.5 -43.5q0 -66 21 -124.5t62 -102t103 -68.5t144 -25q70 0 131 19.5t107 42.5q54 27 98 63 l45 -114q-50 -38 -111 -68q-52 -26 -122.5 -47t-151.5 -21q-106 0 -193 31.5t-148.5 88.5t-95.5 137t-34 178zM250 623h645q1 11 3 22q1 10 2 22.5t1 26.5q0 61 -17.5 107t-49 76.5t-74 45.5t-92.5 15q-65 0 -127.5 -21t-118 -61t-100 -98.5t-72.5 -134.5zM514 1265l35 176 h125l-33 -176h-127zM823 1265l35 176h127l-35 -176h-127z" />
<glyph unicode="&#xec;" horiz-adv-x="475" d="M51 0l199 1030h139l-199 -1030h-139zM163 1441h151l96 -244h-118z" />
<glyph unicode="&#xed;" horiz-adv-x="475" d="M51 0l199 1030h139l-199 -1030h-139zM282 1197l191 244h172l-228 -244h-135z" />
<glyph unicode="&#xee;" horiz-adv-x="475" d="M51 0l199 1030h139l-199 -1030h-139zM99 1197l219 244h154l123 -244h-129l-78 166h-4l-144 -166h-141z" />
<glyph unicode="&#xef;" horiz-adv-x="475" d="M51 0l199 1030h139l-199 -1030h-139zM152 1265l35 176h125l-33 -176h-127zM461 1265l35 176h127l-35 -176h-127z" />
<glyph unicode="&#xf0;" horiz-adv-x="1208" d="M66 383q0 68 17.5 137t51.5 132.5t84 119t114 96.5t142.5 64.5t169.5 23.5q78 0 133 -18.5t90 -40.5q41 -26 68 -59h4q-19 108 -68.5 190t-123.5 143l-394 -161l-8 100l309 127q-62 37 -131 65t-143 48l57 108q102 -26 192.5 -66t168.5 -96l303 127l10 -100l-229 -94 q97 -92 153 -217.5t56 -288.5q0 -72 -15 -155t-47 -166.5t-81 -160.5t-117 -136t-155.5 -94.5t-195.5 -35.5q-104 0 -182 33t-130 89t-77.5 130t-25.5 156zM209 387q0 -58 17 -110t51 -91.5t85 -62.5t119 -23t128 22.5t110 60.5t89 88t66 105t41.5 112t14.5 108 q0 54 -19.5 98.5t-56 76.5t-89 49.5t-118.5 17.5q-90 0 -170 -36t-139.5 -98t-94 -144t-34.5 -173z" />
<glyph unicode="&#xf1;" horiz-adv-x="1217" d="M49 0l201 1030h135l-27 -147q-3 -18 -7.5 -35t-8.5 -31q-5 -16 -10 -31h4q20 39 61 86t100 87.5t133.5 68t160.5 27.5q140 0 217 -66.5t77 -200.5q0 -30 -4 -64.5t-12 -72.5l-127 -651h-139l119 616q8 36 12 71t4 67q0 43 -12.5 75t-35.5 53t-55.5 31.5t-72.5 10.5 q-87 0 -166.5 -36.5t-143.5 -98t-108.5 -142.5t-62.5 -170l-93 -477h-139zM445 1203q21 118 74 179t143 61q33 0 56.5 -11t41 -27.5t31.5 -35.5t28.5 -35.5t30.5 -27.5t37 -11q25 0 43.5 14.5t30.5 36t19.5 46.5t11.5 45h110q-23 -119 -74.5 -179.5t-144.5 -60.5 q-32 0 -55.5 11t-41 27t-32 35t-28.5 35t-30.5 27t-37.5 11q-23 0 -40.5 -14.5t-30 -35.5t-20.5 -45.5t-12 -44.5h-110z" />
<glyph unicode="&#xf2;" horiz-adv-x="1276" d="M68 426q0 88 24.5 169t68 150.5t103 127t130 98t148.5 62.5t158 22q105 0 191.5 -33t148.5 -92t96.5 -141t34.5 -179q0 -89 -25 -170.5t-68.5 -152t-103.5 -128.5t-130 -98.5t-148 -63t-157 -22.5q-105 0 -192 33.5t-149 93t-96 142.5t-34 182zM211 430q0 -72 24 -132.5 t67.5 -104.5t104 -68.5t134.5 -24.5q90 0 177 39t156 107t111.5 160t42.5 198q0 72 -24 131.5t-67.5 102t-104.5 66.5t-134 24q-92 0 -179.5 -38.5t-156 -106t-110 -158t-41.5 -195.5zM560 1441h151l96 -244h-118z" />
<glyph unicode="&#xf3;" horiz-adv-x="1276" d="M68 426q0 88 24.5 169t68 150.5t103 127t130 98t148.5 62.5t158 22q105 0 191.5 -33t148.5 -92t96.5 -141t34.5 -179q0 -89 -25 -170.5t-68.5 -152t-103.5 -128.5t-130 -98.5t-148 -63t-157 -22.5q-105 0 -192 33.5t-149 93t-96 142.5t-34 182zM211 430q0 -72 24 -132.5 t67.5 -104.5t104 -68.5t134.5 -24.5q90 0 177 39t156 107t111.5 160t42.5 198q0 72 -24 131.5t-67.5 102t-104.5 66.5t-134 24q-92 0 -179.5 -38.5t-156 -106t-110 -158t-41.5 -195.5zM680 1197l191 244h172l-228 -244h-135z" />
<glyph unicode="&#xf4;" horiz-adv-x="1276" d="M68 426q0 88 24.5 169t68 150.5t103 127t130 98t148.5 62.5t158 22q105 0 191.5 -33t148.5 -92t96.5 -141t34.5 -179q0 -89 -25 -170.5t-68.5 -152t-103.5 -128.5t-130 -98.5t-148 -63t-157 -22.5q-105 0 -192 33.5t-149 93t-96 142.5t-34 182zM211 430q0 -72 24 -132.5 t67.5 -104.5t104 -68.5t134.5 -24.5q90 0 177 39t156 107t111.5 160t42.5 198q0 72 -24 131.5t-67.5 102t-104.5 66.5t-134 24q-92 0 -179.5 -38.5t-156 -106t-110 -158t-41.5 -195.5zM498 1197l219 244h154l123 -244h-129l-78 166h-4l-144 -166h-141z" />
<glyph unicode="&#xf5;" horiz-adv-x="1276" d="M68 426q0 88 24.5 169t68 150.5t103 127t130 98t148.5 62.5t158 22q105 0 191.5 -33t148.5 -92t96.5 -141t34.5 -179q0 -89 -25 -170.5t-68.5 -152t-103.5 -128.5t-130 -98.5t-148 -63t-157 -22.5q-105 0 -192 33.5t-149 93t-96 142.5t-34 182zM211 430q0 -72 24 -132.5 t67.5 -104.5t104 -68.5t134.5 -24.5q90 0 177 39t156 107t111.5 160t42.5 198q0 72 -24 131.5t-67.5 102t-104.5 66.5t-134 24q-92 0 -179.5 -38.5t-156 -106t-110 -158t-41.5 -195.5zM447 1203q21 118 74 179t143 61q33 0 56.5 -11t41 -27.5t31.5 -35.5t28.5 -35.5 t30.5 -27.5t37 -11q25 0 43.5 14.5t30.5 36t19.5 46.5t11.5 45h110q-23 -119 -74.5 -179.5t-144.5 -60.5q-32 0 -55.5 11t-41 27t-32 35t-28.5 35t-30.5 27t-37.5 11q-23 0 -40.5 -14.5t-30 -35.5t-20.5 -45.5t-12 -44.5h-110z" />
<glyph unicode="&#xf6;" horiz-adv-x="1276" d="M68 426q0 88 24.5 169t68 150.5t103 127t130 98t148.5 62.5t158 22q105 0 191.5 -33t148.5 -92t96.5 -141t34.5 -179q0 -89 -25 -170.5t-68.5 -152t-103.5 -128.5t-130 -98.5t-148 -63t-157 -22.5q-105 0 -192 33.5t-149 93t-96 142.5t-34 182zM211 430q0 -72 24 -132.5 t67.5 -104.5t104 -68.5t134.5 -24.5q90 0 177 39t156 107t111.5 160t42.5 198q0 72 -24 131.5t-67.5 102t-104.5 66.5t-134 24q-92 0 -179.5 -38.5t-156 -106t-110 -158t-41.5 -195.5zM549 1265l35 176h125l-33 -176h-127zM858 1265l35 176h127l-35 -176h-127z" />
<glyph unicode="&#xf7;" horiz-adv-x="1317" d="M150 522v119h1003v-119h-1003zM573 125v151h154v-151h-154zM573 887v151h154v-151h-154z" />
<glyph unicode="&#xf8;" horiz-adv-x="1276" d="M68 426q0 88 24.5 169t68 150.5t103 127t130 98t148.5 62.5t158 22q82 0 153 -21t130 -59l107 117l77 -68l-106 -117q52 -57 81 -132t29 -165q0 -89 -25 -170.5t-68.5 -152t-103.5 -128.5t-130 -98.5t-148 -63t-157 -22.5t-146 18t-123 52l-104 -113l-78 66l100 111 q-58 60 -89 140t-31 177zM211 430q0 -65 19 -120t53 -97l606 661q-38 25 -86.5 39.5t-104.5 14.5q-92 0 -179.5 -38.5t-156 -106t-110 -158t-41.5 -195.5zM362 145q38 -21 83 -33t96 -12q90 0 177 39t156 107t111.5 160t42.5 198q0 118 -63 199z" />
<glyph unicode="&#xf9;" horiz-adv-x="1206" d="M94 242q0 31 4.5 65t12.5 72l125 651h139l-119 -612q-8 -40 -11 -75.5t-3 -66.5q0 -37 8.5 -68t29 -53.5t55 -35.5t87.5 -13q87 0 164.5 39t139.5 103t104.5 144.5t58.5 164.5l92 473h139l-200 -1030h-138l29 147q4 18 8 35t9 31q4 16 10 31h-4q-21 -39 -61 -85.5 t-97.5 -87.5t-131 -68.5t-161.5 -27.5q-58 0 -110.5 14t-92 45.5t-63 82.5t-23.5 125zM519 1441h151l96 -244h-118z" />
<glyph unicode="&#xfa;" horiz-adv-x="1206" d="M94 242q0 31 4.5 65t12.5 72l125 651h139l-119 -612q-8 -40 -11 -75.5t-3 -66.5q0 -37 8.5 -68t29 -53.5t55 -35.5t87.5 -13q87 0 164.5 39t139.5 103t104.5 144.5t58.5 164.5l92 473h139l-200 -1030h-138l29 147q4 18 8 35t9 31q4 16 10 31h-4q-21 -39 -61 -85.5 t-97.5 -87.5t-131 -68.5t-161.5 -27.5q-58 0 -110.5 14t-92 45.5t-63 82.5t-23.5 125zM639 1197l191 244h172l-228 -244h-135z" />
<glyph unicode="&#xfb;" horiz-adv-x="1206" d="M94 242q0 31 4.5 65t12.5 72l125 651h139l-119 -612q-8 -40 -11 -75.5t-3 -66.5q0 -37 8.5 -68t29 -53.5t55 -35.5t87.5 -13q87 0 164.5 39t139.5 103t104.5 144.5t58.5 164.5l92 473h139l-200 -1030h-138l29 147q4 18 8 35t9 31q4 16 10 31h-4q-21 -39 -61 -85.5 t-97.5 -87.5t-131 -68.5t-161.5 -27.5q-58 0 -110.5 14t-92 45.5t-63 82.5t-23.5 125zM455 1197l219 244h154l123 -244h-129l-78 166h-4l-144 -166h-141z" />
<glyph unicode="&#xfc;" horiz-adv-x="1206" d="M94 242q0 31 4.5 65t12.5 72l125 651h139l-119 -612q-8 -40 -11 -75.5t-3 -66.5q0 -37 8.5 -68t29 -53.5t55 -35.5t87.5 -13q87 0 164.5 39t139.5 103t104.5 144.5t58.5 164.5l92 473h139l-200 -1030h-138l29 147q4 18 8 35t9 31q4 16 10 31h-4q-21 -39 -61 -85.5 t-97.5 -87.5t-131 -68.5t-161.5 -27.5q-58 0 -110.5 14t-92 45.5t-63 82.5t-23.5 125zM508 1265l35 176h125l-33 -176h-127zM817 1265l35 176h127l-35 -176h-127z" />
<glyph unicode="&#xfd;" horiz-adv-x="1022" d="M-184 -369l69 105q12 -12 30 -21q15 -8 36.5 -14t48.5 -6q36 0 68 12.5t60.5 35t53.5 53t47 65.5l93 149l-234 1020h145l160 -770q4 -20 7 -38.5t6 -34.5q3 -18 6 -35h2q8 17 18 35q8 15 18 33.5t21 37.5l447 772h157l-753 -1249q-62 -103 -143.5 -157t-174.5 -54 q-45 0 -79.5 9.5t-58.5 20.5q-28 13 -50 31zM547 1197l191 244h172l-228 -244h-135z" />
<glyph unicode="&#xfe;" horiz-adv-x="1212" d="M-29 -410l359 1850h137l-96 -504q-4 -17 -7.5 -32t-7.5 -27q-4 -14 -8 -27h4q25 39 61.5 76t83.5 65.5t104 46t122 17.5q91 0 162 -29t120 -83t74 -130.5t25 -171.5q0 -147 -47.5 -269.5t-125.5 -210.5t-178 -137t-206 -49q-56 0 -106.5 13t-93 38.5t-74.5 64.5t-50 91 h-4q0 -13 -2 -29q-2 -14 -4 -31.5t-6 -37.5l-96 -494h-140zM276 397q0 -60 15.5 -114t47.5 -94.5t81 -64.5t115 -24q49 0 100 16.5t98 47.5t88 77t71.5 105t48 130.5t17.5 154.5q0 69 -17.5 124t-50.5 93.5t-81 59t-109 20.5q-63 0 -118.5 -21.5t-103 -59.5t-85 -89 t-63.5 -110t-40 -123.5t-14 -127.5z" />
<glyph unicode="&#xff;" horiz-adv-x="1022" d="M-184 -369l69 105q12 -12 30 -21q15 -8 36.5 -14t48.5 -6q36 0 68 12.5t60.5 35t53.5 53t47 65.5l93 149l-234 1020h145l160 -770q4 -20 7 -38.5t6 -34.5q3 -18 6 -35h2q8 17 18 35q8 15 18 33.5t21 37.5l447 772h157l-753 -1249q-62 -103 -143.5 -157t-174.5 -54 q-45 0 -79.5 9.5t-58.5 20.5q-28 13 -50 31zM416 1265l35 176h125l-33 -176h-127zM725 1265l35 176h127l-35 -176h-127z" />
<glyph unicode="&#x152;" horiz-adv-x="1944" d="M121 588q0 118 32 228.5t89.5 207t137 177t175 138t203 89.5t221.5 32q36 0 72.5 -3t72 -7t68 -7t59.5 -3h711l-25 -127h-667l-103 -525h547l-26 -126h-547l-103 -535h705l-25 -127h-723q-24 0 -54 -3t-63 -7t-66.5 -7t-63.5 -3q-145 0 -261 45.5t-197.5 126.5 t-125 192.5t-43.5 243.5zM266 582q0 -103 33.5 -189.5t96 -149t152 -97.5t202.5 -35q29 0 55.5 2.5t46.5 5.5q24 4 45 8l229 1186q-19 4 -41 8q-20 3 -45.5 5.5t-54.5 2.5q-98 0 -189 -27t-171 -76t-146 -117.5t-113.5 -151.5t-73.5 -178t-26 -197z" />
<glyph unicode="&#x153;" horiz-adv-x="2075" d="M68 426q0 88 24.5 169t68 150.5t103 127t130 98t148.5 62.5t158 22q79 0 147 -20.5t122.5 -57t94 -88t62.5 -113.5h4q39 61 90 112.5t112 88.5t131.5 57.5t148.5 20.5q96 0 166.5 -28t117 -78t69 -118t22.5 -149q0 -30 -5 -61t-11 -56q-7 -30 -15 -57h-789 q-5 -23 -6.5 -44.5t-1.5 -43.5q0 -68 21.5 -126.5t63.5 -101.5t103 -67.5t140 -24.5q70 0 131 19.5t107 42.5q54 27 98 63l45 -114q-50 -38 -111 -68q-52 -26 -122.5 -47t-151.5 -21t-150.5 19t-125 55.5t-95.5 88.5t-61 118h-4q-44 -64 -101 -116t-122.5 -88.5 t-137.5 -56.5t-145 -20q-105 0 -192.5 33.5t-149.5 93t-96.5 142.5t-34.5 182zM211 430q0 -72 24 -132.5t67.5 -104.5t104.5 -68.5t134 -24.5q90 0 178 39t157 107t111.5 160t42.5 198q0 72 -24 131.5t-67.5 102t-104.5 66.5t-134 24q-62 0 -122 -17.5t-114.5 -49.5 t-100.5 -77.5t-80 -100.5t-53 -119t-19 -134zM1194 623h643q1 11 3 22q1 10 2 22.5t1 26.5q0 61 -17.5 107t-48.5 76.5t-73.5 45.5t-93.5 15q-65 0 -127.5 -21t-117.5 -61t-99 -98.5t-72 -134.5z" />
<glyph unicode="&#x178;" horiz-adv-x="1155" d="M176 1440h152l202 -522q11 -29 21.5 -59t18.5 -56q10 -30 18 -58h4q18 28 37 57q17 25 38 54.5t44 58.5l405 525h172l-649 -826l-121 -614h-141l123 618zM545 1608l35 176h125l-33 -176h-127zM854 1608l35 176h127l-35 -176h-127z" />
<glyph unicode="&#x2c6;" horiz-adv-x="1032" d="M125 1540l219 244h154l123 -244h-129l-78 166h-4l-144 -166h-141z" />
<glyph unicode="&#x2dc;" horiz-adv-x="1032" d="M74 1546q21 118 74 179t143 61q33 0 56.5 -11t41 -27.5t31.5 -35.5t28.5 -35.5t30.5 -27.5t37 -11q25 0 43.5 14.5t30.5 36t19.5 46.5t11.5 45h110q-23 -119 -74.5 -179.5t-144.5 -60.5q-32 0 -55.5 11t-41 27t-32 35t-28.5 35t-30.5 27t-37.5 11q-23 0 -40.5 -14.5 t-30 -35.5t-20.5 -45.5t-12 -44.5h-110z" />
<glyph unicode="&#x2000;" horiz-adv-x="904" />
<glyph unicode="&#x2001;" horiz-adv-x="1808" />
<glyph unicode="&#x2002;" horiz-adv-x="904" />
<glyph unicode="&#x2003;" horiz-adv-x="1808" />
<glyph unicode="&#x2004;" horiz-adv-x="602" />
<glyph unicode="&#x2005;" horiz-adv-x="452" />
<glyph unicode="&#x2006;" horiz-adv-x="301" />
<glyph unicode="&#x2007;" horiz-adv-x="301" />
<glyph unicode="&#x2008;" horiz-adv-x="226" />
<glyph unicode="&#x2009;" horiz-adv-x="361" />
<glyph unicode="&#x200a;" horiz-adv-x="100" />
<glyph unicode="&#x2010;" horiz-adv-x="999" d="M190 518l23 127h582l-25 -127h-580z" />
<glyph unicode="&#x2011;" horiz-adv-x="999" d="M190 518l23 127h582l-25 -127h-580z" />
<glyph unicode="&#x2012;" horiz-adv-x="999" d="M190 518l23 127h582l-25 -127h-580z" />
<glyph unicode="&#x2013;" horiz-adv-x="1442" d="M193 522l22 119h1022l-20 -119h-1024z" />
<glyph unicode="&#x2014;" horiz-adv-x="1851" d="M193 522l22 119h1432l-21 -119h-1433z" />
<glyph unicode="&#x2018;" horiz-adv-x="440" d="M205 1108l182 350h117l-146 -350h-153z" />
<glyph unicode="&#x2019;" horiz-adv-x="432" d="M211 1108l147 350h152l-182 -350h-117z" />
<glyph unicode="&#x201a;" horiz-adv-x="496" d="M-43 -184l145 352h154l-182 -352h-117z" />
<glyph unicode="&#x201c;" horiz-adv-x="684" d="M205 1108l182 350h117l-146 -350h-153zM451 1108l182 350h117l-148 -350h-151z" />
<glyph unicode="&#x201d;" horiz-adv-x="678" d="M211 1108l147 350h152l-182 -350h-117zM457 1108l145 350h154l-183 -350h-116z" />
<glyph unicode="&#x201e;" horiz-adv-x="741" d="M-43 -184l147 352h152l-182 -352h-117zM203 -184l145 352h154l-183 -352h-116z" />
<glyph unicode="&#x2022;" horiz-adv-x="823" d="M115 596q0 61 23 114t62.5 93t93 63t114.5 23q60 0 113 -23t92.5 -63t62 -93t22.5 -114t-22.5 -114.5t-62 -93t-92.5 -62.5t-113 -23q-61 0 -114.5 23t-93 62.5t-62.5 93t-23 114.5z" />
<glyph unicode="&#x2026;" horiz-adv-x="1458" d="M51 0l33 170h164l-33 -170h-164zM532 0l33 170h164l-33 -170h-164zM1014 0l33 170h163l-32 -170h-164z" />
<glyph unicode="&#x202f;" horiz-adv-x="361" />
<glyph unicode="&#x2039;" horiz-adv-x="688" d="M90 582l393 417h160l-407 -428l258 -413h-140z" />
<glyph unicode="&#x203a;" horiz-adv-x="686" d="M31 158l407 428l-258 413h139l265 -424l-394 -417h-159z" />
<glyph unicode="&#x205f;" horiz-adv-x="452" />
<glyph unicode="&#x20ac;" horiz-adv-x="1200" d="M68 545l18 104h113q6 83 30 166h-108l18 105h125q51 119 132 219t183 172t220 112.5t241 40.5q47 0 85.5 -4.5t67.5 -9.5q33 -6 60 -14l-57 -127q-21 6 -47 10q-22 4 -50.5 7t-60.5 3q-97 0 -189 -30t-172 -84t-145.5 -129.5t-109.5 -165.5h627l-41 -105h-629 q-13 -42 -21.5 -82t-11.5 -84h598l-39 -104h-555q6 -90 36.5 -169t87.5 -138t139.5 -93t191.5 -34q38 0 72 4.5t60 9.5q30 6 56 14l6 -135q-26 -9 -58 -15q-27 -5 -63.5 -9.5t-78.5 -4.5q-131 0 -239.5 41.5t-186.5 116.5t-123.5 180t-50.5 232h-131z" />
<glyph unicode="&#x2122;" horiz-adv-x="2028" d="M184 1333v107h758v-107h-321v-790h-117v790h-320zM1016 543l71 897h107l236 -514q7 -15 12 -30l9 -27q4 -14 7 -27h4q4 13 8 27l9 27t12 30l235 514h107l70 -897h-113l-51 608q-2 24 0 41q1 10 2 18h-4l-230 -499h-94l-229 499h-4q1 -8 2 -18q2 -17 0 -41l-52 -608h-114z " />
<glyph unicode="&#x25fc;" horiz-adv-x="1030" d="M0 0v1030h1030v-1030h-1030z" />
</font>
</defs>
</svg>
